<svg width="24" height="24" viewBox="0 0 24 24" fill="current" xmlns="http://www.w3.org/2000/svg">
<path d="M15.29 15.46L11.41 11.58L15.29 7.70001C15.3826 7.60742 15.456 7.49751 15.5061 7.37655C15.5562 7.25559 15.582 7.12594 15.582 6.99501C15.582 6.86408 15.5562 6.73443 15.5061 6.61346C15.456 6.4925 15.3826 6.38259 15.29 6.29001C15.1974 6.19742 15.0875 6.12398 14.9665 6.07388C14.8456 6.02377 14.7159 5.99799 14.585 5.99799C14.4541 5.99799 14.3244 6.02377 14.2035 6.07388C14.0825 6.12398 13.9726 6.19742 13.88 6.29001L9.29 10.88C9.1973 10.9725 9.12375 11.0824 9.07357 11.2034C9.02339 11.3244 8.99756 11.454 8.99756 11.585C8.99756 11.716 9.02339 11.8457 9.07357 11.9666C9.12375 12.0876 9.1973 12.1975 9.29 12.29L13.88 16.88C14.27 17.27 14.9 17.27 15.29 16.88C15.67 16.49 15.68 15.85 15.29 15.46Z" fill="current"/>
</svg>
