<svg width="38" height="38" viewBox="0 0 38 38" fill="none" xmlns="http://www.w3.org/2000/svg">
<path fill-rule="evenodd" clip-rule="evenodd" d="M28.5002 19C28.5002 19.315 28.3751 19.617 28.1524 19.8397C27.9297 20.0624 27.6276 20.1875 27.3127 20.1875H13.5543L18.6534 25.2843C18.7638 25.3947 18.8514 25.5258 18.9112 25.67C18.9709 25.8143 19.0017 25.9689 19.0017 26.125C19.0017 26.2812 18.9709 26.4358 18.9112 26.58C18.8514 26.7243 18.7638 26.8554 18.6534 26.9658C18.543 27.0762 18.4119 27.1638 18.2677 27.2235C18.1234 27.2833 17.9688 27.314 17.8127 27.314C17.6565 27.314 17.5019 27.2833 17.3577 27.2235C17.2134 27.1638 17.0823 27.0762 16.9719 26.9658L9.84692 19.8408C9.73633 19.7305 9.64859 19.5994 9.58873 19.4552C9.52886 19.3109 9.49805 19.1562 9.49805 19C9.49805 18.8438 9.52886 18.6892 9.58873 18.5449C9.64859 18.4006 9.73633 18.2696 9.84692 18.1593L16.9719 11.0343C17.1949 10.8113 17.4973 10.686 17.8127 10.686C18.128 10.686 18.4304 10.8113 18.6534 11.0343C18.8764 11.2573 19.0017 11.5597 19.0017 11.875C19.0017 12.1904 18.8764 12.4928 18.6534 12.7158L13.5543 17.8125H27.3127C27.6276 17.8125 27.9297 17.9376 28.1524 18.1603C28.3751 18.383 28.5002 18.6851 28.5002 19Z" fill="#EFF0F7"/>
</svg>
