<svg width="20" height="18" viewBox="0 0 20 18" fill="none" xmlns="http://www.w3.org/2000/svg">
<path fill-rule="evenodd" clip-rule="evenodd" d="M19.5002 9.00004C19.5002 9.31498 19.3751 9.61703 19.1524 9.83972C18.9297 10.0624 18.6276 10.1875 18.3127 10.1875H4.55429L9.65342 15.2843C9.76383 15.3947 9.85141 15.5258 9.91116 15.67C9.97091 15.8143 10.0017 15.9689 10.0017 16.125C10.0017 16.2812 9.97091 16.4358 9.91116 16.58C9.85141 16.7243 9.76383 16.8554 9.65342 16.9658C9.54301 17.0762 9.41194 17.1638 9.26768 17.2235C9.12342 17.2833 8.96881 17.314 8.81267 17.314C8.65653 17.314 8.50191 17.2833 8.35766 17.2235C8.2134 17.1638 8.08233 17.0762 7.97192 16.9658L0.846919 9.84079C0.736332 9.73048 0.648592 9.59943 0.588727 9.45516C0.528862 9.31089 0.498047 9.15623 0.498047 9.00004C0.498047 8.84384 0.528862 8.68917 0.588727 8.5449C0.648592 8.40064 0.736332 8.26959 0.846919 8.15928L7.97192 1.03429C8.1949 0.811305 8.49733 0.686035 8.81267 0.686035C9.12801 0.686035 9.43044 0.811305 9.65342 1.03429C9.8764 1.25727 10.0017 1.55969 10.0017 1.87504C10.0017 2.19038 9.8764 2.49281 9.65342 2.71579L4.55429 7.81253H18.3127C18.6276 7.81253 18.9297 7.93765 19.1524 8.16035C19.3751 8.38305 19.5002 8.68509 19.5002 9.00004Z" fill="current"/>
</svg>
