<svg width="31" height="31" viewBox="0 0 31 31" fill="none" xmlns="http://www.w3.org/2000/svg">
<path d="M9.04169 10.3334C8.32832 10.3334 7.75002 10.9117 7.75002 11.625C7.75002 12.3384 8.32832 12.9167 9.04169 12.9167H20.6667C21.3801 12.9167 21.9584 12.3384 21.9584 11.625C21.9584 10.9117 21.3801 10.3334 20.6667 10.3334H9.04169Z" fill="current"/>
<path d="M7.75002 16.7917C7.75002 16.0783 8.32832 15.5 9.04169 15.5H20.6667C21.3801 15.5 21.9584 16.0783 21.9584 16.7917C21.9584 17.5051 21.3801 18.0834 20.6667 18.0834H9.04169C8.32832 18.0834 7.75002 17.5051 7.75002 16.7917Z" fill="current"/>
<path d="M9.04169 20.6667C8.32832 20.6667 7.75002 21.245 7.75002 21.9584C7.75002 22.6717 8.32832 23.25 9.04169 23.25H15.5C16.2134 23.25 16.7917 22.6717 16.7917 21.9584C16.7917 21.245 16.2134 20.6667 15.5 20.6667H9.04169Z" fill="current"/>
<path fill-rule="evenodd" clip-rule="evenodd" d="M1.29169 15.5V28.4166C1.29169 29.1299 1.87009 29.7084 2.58346 29.7084H15.5C23.3471 29.7084 29.7084 23.3471 29.7084 15.5C29.7084 7.65297 23.3471 1.29169 15.5 1.29169C7.65297 1.29169 1.29169 7.65297 1.29169 15.5ZM3.87502 15.5C3.87502 9.07971 9.07971 3.87502 15.5 3.87502C21.9203 3.87502 27.125 9.07971 27.125 15.5C27.125 21.9203 21.9203 27.125 15.5 27.125H3.87502V15.5Z" fill="current"/>
</svg>
