<svg width="35" height="35" viewBox="0 0 35 35" fill="none" xmlns="http://www.w3.org/2000/svg">
<path d="M17.4999 2.43054C8.92489 2.43054 1.94434 8.5361 1.94434 16.0417C1.94434 23.5472 8.92489 29.6528 17.4999 29.6528C19.1042 29.6509 20.7006 29.4285 22.2443 28.9917L27.6207 32.4139C27.7675 32.508 27.9369 32.561 28.1112 32.5672C28.2855 32.5734 28.4582 32.5326 28.6113 32.4491C28.7644 32.3656 28.8922 32.2424 28.9813 32.0926C29.0705 31.9427 29.1177 31.7716 29.1179 31.5972V25.0542C30.3344 23.8872 31.3052 22.4886 31.973 20.9408C32.6409 19.3931 32.9924 17.7273 33.0068 16.0417C33.0554 8.5361 26.0749 2.43054 17.4999 2.43054ZM27.5041 23.9264C27.4063 24.017 27.3283 24.1268 27.2747 24.2489C27.2212 24.371 27.1934 24.5028 27.1929 24.6361V29.8278L22.9346 27.1153C22.8158 27.0402 22.6822 26.9917 22.5429 26.9733C22.4036 26.9548 22.2619 26.9668 22.1277 27.0083C20.6292 27.4737 19.069 27.7097 17.4999 27.7083C9.99434 27.7083 3.88878 22.4778 3.88878 16.0417C3.88878 9.60554 9.99434 4.37499 17.4999 4.37499C25.0054 4.37499 31.111 9.60554 31.111 16.0417C31.0888 17.5341 30.7568 19.0056 30.1359 20.3629C29.5149 21.7203 28.6187 22.9337 27.5041 23.9264Z" fill="current"/>
<path d="M24.3055 15.0695H10.6944C10.4365 15.0695 10.1893 15.1719 10.0069 15.3542C9.8246 15.5365 9.72217 15.7838 9.72217 16.0417C9.72217 16.2995 9.8246 16.5468 10.0069 16.7291C10.1893 16.9115 10.4365 17.0139 10.6944 17.0139H24.3055C24.5633 17.0139 24.8106 16.9115 24.993 16.7291C25.1753 16.5468 25.2777 16.2995 25.2777 16.0417C25.2777 15.7838 25.1753 15.5365 24.993 15.3542C24.8106 15.1719 24.5633 15.0695 24.3055 15.0695Z" fill="current"/>
<path d="M21.1457 19.9305H13.8541C13.5962 19.9305 13.3489 20.033 13.1666 20.2153C12.9843 20.3976 12.8818 20.6449 12.8818 20.9028C12.8818 21.1606 12.9843 21.4079 13.1666 21.5902C13.3489 21.7726 13.5962 21.875 13.8541 21.875H21.1457C21.4036 21.875 21.6509 21.7726 21.8332 21.5902C22.0155 21.4079 22.1179 21.1606 22.1179 20.9028C22.1179 20.6449 22.0155 20.3976 21.8332 20.2153C21.6509 20.033 21.4036 19.9305 21.1457 19.9305Z" fill="current"/>
<path d="M10.9666 12.1528H24.0333C24.2911 12.1528 24.5384 12.0504 24.7207 11.8681C24.9031 11.6857 25.0055 11.4384 25.0055 11.1806C25.0055 10.9227 24.9031 10.6755 24.7207 10.4931C24.5384 10.3108 24.2911 10.2084 24.0333 10.2084H10.9666C10.7088 10.2084 10.4615 10.3108 10.2791 10.4931C10.0968 10.6755 9.99438 10.9227 9.99438 11.1806C9.99438 11.4384 10.0968 11.6857 10.2791 11.8681C10.4615 12.0504 10.7088 12.1528 10.9666 12.1528Z" fill="current"/>
</svg>
