<svg width="26" height="26" viewBox="0 0 26 26" fill="none" xmlns="http://www.w3.org/2000/svg">
<path d="M11.3751 4.87499C11.3751 3.92684 10.9984 3.01752 10.328 2.34708C9.65756 1.67664 8.74825 1.29999 7.8001 1.29999C6.85195 1.29999 5.94263 1.67664 5.27219 2.34708C4.60175 3.01752 4.2251 3.92684 4.2251 4.87499C4.2251 5.82314 4.60175 6.73245 5.27219 7.40289C5.94263 8.07334 6.85195 8.44999 7.8001 8.44999C8.74825 8.44999 9.65756 8.07334 10.328 7.40289C10.9984 6.73245 11.3751 5.82314 11.3751 4.87499ZM5.5251 4.87499C5.5251 4.57623 5.58394 4.2804 5.69827 4.00438C5.8126 3.72837 5.98018 3.47757 6.19143 3.26632C6.40268 3.05507 6.65348 2.88749 6.92949 2.77316C7.20551 2.65883 7.50134 2.59999 7.8001 2.59999C8.09886 2.59999 8.39469 2.65883 8.6707 2.77316C8.94672 2.88749 9.19751 3.05507 9.40877 3.26632C9.62002 3.47757 9.78759 3.72837 9.90192 4.00438C10.0163 4.2804 10.0751 4.57623 10.0751 4.87499C10.0751 5.47835 9.83541 6.05701 9.40877 6.48366C8.98212 6.9103 8.40347 7.14999 7.8001 7.14999C7.19673 7.14999 6.61808 6.9103 6.19143 6.48366C5.76478 6.05701 5.5251 5.47835 5.5251 4.87499Z" fill="#EFF0F7"/>
<path d="M3.25005 9.75H8.68795C8.47475 10.153 8.31615 10.5898 8.22255 11.05H3.25005C3.07766 11.05 2.91233 11.1185 2.79043 11.2404C2.66853 11.3623 2.60005 11.5276 2.60005 11.7V12.35C2.60005 13.988 4.02875 15.7482 6.62485 16.159C6.20625 16.445 5.85785 16.8259 5.60955 17.2692C2.86655 16.5269 1.30005 14.4131 1.30005 12.35V11.7C1.30005 11.1828 1.50549 10.6868 1.87119 10.3211C2.23689 9.95545 2.73288 9.75 3.25005 9.75Z" fill="#EFF0F7"/>
<path d="M10.2428 9.74999C10.898 8.95699 11.8899 8.44999 13.0001 8.44999C13.7786 8.44863 14.5362 8.702 15.1573 9.17144C15.7783 9.64089 16.2288 10.3006 16.4399 11.05C16.628 11.7188 16.6174 12.428 16.4094 13.0909C16.2013 13.7538 15.8048 14.3419 15.2681 14.7832C14.7315 15.2246 14.078 15.5002 13.3874 15.5764C12.6968 15.6527 11.9989 15.5263 11.379 15.2126C10.9016 14.9696 10.485 14.6225 10.1598 14.1969C9.83462 13.7713 9.60923 13.2781 9.50028 12.7537C9.39133 12.2293 9.4016 11.6871 9.53035 11.1672C9.65909 10.6473 9.903 10.163 10.2441 9.74999H10.2428ZM10.9448 11.05C10.8167 11.3201 10.7431 11.6127 10.7282 11.9112C10.7133 12.2097 10.7573 12.5083 10.8577 12.7898C10.9581 13.0713 11.113 13.3303 11.3136 13.5519C11.5141 13.7736 11.7563 13.9535 12.0264 14.0816C12.2964 14.2096 12.5891 14.2832 12.8876 14.2982C13.1861 14.3131 13.4847 14.2691 13.7662 14.1687C14.0477 14.0682 14.3067 13.9133 14.5283 13.7128C14.75 13.5123 14.9299 13.2701 15.058 13C15.3166 12.4544 15.3478 11.8284 15.1448 11.2597C14.9419 10.6911 14.5213 10.2263 13.9757 9.96774C13.4301 9.70915 12.8041 9.6779 12.2355 9.88086C11.6668 10.0838 11.2021 10.5044 10.9435 11.05H10.9448Z" fill="#EFF0F7"/>
<path d="M20.3906 17.2692C20.143 16.8257 19.7953 16.446 19.3753 16.1603C21.9701 15.7482 23.4001 13.9867 23.4001 12.35V11.7C23.4001 11.5276 23.3316 11.3623 23.2097 11.2404C23.0878 11.1185 22.9225 11.05 22.7501 11.05H17.7776C17.6857 10.5967 17.5294 10.159 17.3135 9.75H22.7501C23.2672 9.75 23.7632 9.95545 24.1289 10.3211C24.4946 10.6868 24.7001 11.1828 24.7001 11.7V12.35C24.7001 14.4131 23.1323 16.5256 20.3906 17.2692Z" fill="#EFF0F7"/>
<path d="M18.8331 17.381C18.4899 17.082 18.0414 16.9 17.55 16.9H8.45001C8.19374 16.8993 7.93986 16.9493 7.70296 17.047C7.46607 17.1448 7.25083 17.2884 7.06962 17.4696C6.88841 17.6508 6.7448 17.8661 6.64704 18.103C6.54929 18.3399 6.49932 18.5937 6.50001 18.85V19.5C6.50001 22.0623 8.91801 24.7 13 24.7C17.082 24.7 19.5 22.0623 19.5 19.5V18.85C19.5 18.265 19.2426 17.7398 18.8331 17.381ZM7.80001 18.85C7.80001 18.6776 7.86849 18.5123 7.99039 18.3904C8.11229 18.2685 8.27762 18.2 8.45001 18.2H17.55C17.7224 18.2 17.8877 18.2685 18.0096 18.3904C18.1315 18.5123 18.2 18.6776 18.2 18.85V19.5C18.2 21.3694 16.3384 23.4 13 23.4C9.66161 23.4 7.80001 21.3694 7.80001 19.5V18.85Z" fill="#EFF0F7"/>
<path d="M18.2 1.29999C19.1481 1.29999 20.0575 1.67664 20.7279 2.34708C21.3983 3.01752 21.775 3.92684 21.775 4.87499C21.775 5.82314 21.3983 6.73245 20.7279 7.40289C20.0575 8.07334 19.1481 8.44999 18.2 8.44999C17.2519 8.44999 16.3425 8.07334 15.6721 7.40289C15.0017 6.73245 14.625 5.82314 14.625 4.87499C14.625 3.92684 15.0017 3.01752 15.6721 2.34708C16.3425 1.67664 17.2519 1.29999 18.2 1.29999ZM18.2 2.59999C17.5966 2.59999 17.018 2.83967 16.5913 3.26632C16.1647 3.69297 15.925 4.27162 15.925 4.87499C15.925 5.47835 16.1647 6.05701 16.5913 6.48366C17.018 6.9103 17.5966 7.14999 18.2 7.14999C18.8034 7.14999 19.382 6.9103 19.8087 6.48366C20.2353 6.05701 20.475 5.47835 20.475 4.87499C20.475 4.27162 20.2353 3.69297 19.8087 3.26632C19.382 2.83967 18.8034 2.59999 18.2 2.59999Z" fill="#EFF0F7"/>
</svg>
