<svg width="31" height="31" viewBox="0 0 31 31" fill="none" xmlns="http://www.w3.org/2000/svg">
<path d="M14.8642 16.7935C14.988 16.7942 15.1082 16.7951 15.2251 16.7963L15.8882 16.8067L16.4795 16.8248L17.0069 16.8521C18.2524 16.9329 18.9732 17.1132 19.7236 17.4955C20.9389 18.1147 21.9269 19.1028 22.5461 20.318L22.6092 20.4446L22.7239 20.6945L22.8243 20.945C22.8399 20.9872 22.8549 21.0297 22.8694 21.0726L22.95 21.3363C22.9624 21.3815 22.9743 21.4274 22.9857 21.4741L23.0486 21.7655C23.0582 21.8161 23.0673 21.8677 23.0761 21.9207L23.1234 22.2541L23.1615 22.6237L23.1914 23.0358L23.2139 23.4969L23.2361 24.2943L23.2487 25.589L23.25 27.125C23.25 27.8383 22.6717 28.4166 21.9583 28.4166H2.58329C1.86977 28.4166 1.29141 27.8381 1.29163 27.1246L1.29212 25.5591L1.29628 24.8165L1.30668 24.1535L1.32478 23.5621L1.35204 23.0347C1.43285 21.7892 1.61318 21.0684 1.99554 20.318C2.61472 19.1028 3.60273 18.1147 4.81797 17.4955C5.61844 17.0877 6.38519 16.9097 7.7909 16.8372L8.34931 16.8147L8.9755 16.8006L9.67736 16.7935H14.8642ZM26.1819 17.4955C27.3971 18.1147 28.3852 19.1028 29.0044 20.318L29.1267 20.5699C29.1458 20.6115 29.1643 20.653 29.1822 20.6945L29.2826 20.945C29.2982 20.9872 29.3132 21.0297 29.3277 21.0726L29.4083 21.3363C29.4207 21.3815 29.4326 21.4274 29.444 21.4741L29.5069 21.7655C29.5261 21.8666 29.5434 21.9722 29.5592 22.0833L29.6018 22.434L29.6357 22.824L29.6722 23.4969L29.6943 24.2943L29.7053 25.2381L29.7082 27.125C29.7082 27.8383 29.1299 28.4166 28.4166 28.4166C27.7542 28.4166 27.2082 27.918 27.1336 27.2756L27.1249 27.125L27.1238 25.6688L27.1122 24.4357L27.0928 23.7025L27.0736 23.2922L27.0486 22.9367L27.0173 22.6292C27.0115 22.5816 27.0054 22.5356 26.999 22.4913L26.9569 22.243C26.9339 22.1271 26.9079 22.0229 26.8786 21.9264L26.8154 21.7426L26.7427 21.5727C26.7298 21.5451 26.7164 21.5179 26.7026 21.4908C26.3723 20.8427 25.8672 20.3022 25.247 19.9292L25.0091 19.7973C24.3735 19.4734 24.1208 18.6956 24.4446 18.06C24.7685 17.4244 25.5463 17.1717 26.1819 17.4955ZM14.8196 19.3767H9.72418L8.82311 19.3874L8.08256 19.4106L7.66679 19.4342L7.3055 19.4651L6.99194 19.504L6.71937 19.5517C6.54982 19.5865 6.4031 19.6276 6.27021 19.6759L6.08013 19.754L5.99076 19.7973C5.26164 20.1688 4.66883 20.7616 4.29731 21.4908C4.26745 21.5494 4.23958 21.6098 4.21357 21.673L4.14102 21.8726C4.10743 21.9779 4.07777 22.0922 4.05165 22.2193L4.00401 22.4918L3.96509 22.8053L3.93418 23.1664L3.90133 23.8122L3.88254 24.6032L3.87496 25.8333H20.6653L20.6615 25.0108L20.6539 24.4321L20.6344 23.6974L20.615 23.2865L20.5898 22.9306L20.5582 22.623L20.5196 22.3566L20.4732 22.1247C20.4648 22.0885 20.456 22.0535 20.4469 22.0195L20.3878 21.8262L20.3193 21.6501L20.2443 21.4908C19.8728 20.7617 19.28 20.1688 18.5509 19.7973C18.4923 19.7675 18.4319 19.7396 18.3686 19.7136L18.169 19.641C18.0637 19.6074 17.9494 19.5778 17.8223 19.5517L17.5498 19.504L17.2364 19.4651L16.8753 19.4342L16.2296 19.4013L15.4387 19.3826L14.8196 19.3767ZM12.2708 2.58331C15.481 2.58331 18.0833 5.18566 18.0833 8.39581C18.0833 11.606 15.481 14.2083 12.2708 14.2083C9.06063 14.2083 6.45829 11.606 6.45829 8.39581C6.45829 5.18566 9.06064 2.58331 12.2708 2.58331ZM21.7257 3.41447C23.4585 4.45856 24.5417 6.33431 24.5417 8.39581C24.5417 10.4573 23.4585 12.3331 21.7257 13.3772C21.1147 13.7453 20.3209 13.5485 19.9528 12.9375C19.5846 12.3264 19.7814 11.5327 20.3925 11.1645C21.3572 10.5831 21.9584 9.5422 21.9584 8.39581C21.9584 7.24943 21.3572 6.2085 20.3925 5.62715C19.7814 5.25898 19.5846 4.46518 19.9528 3.85417C20.3209 3.24315 21.1147 3.0463 21.7257 3.41447ZM12.2708 5.16665C10.4874 5.16665 9.04163 6.61239 9.04163 8.39581C9.04163 10.1792 10.4874 11.625 12.2708 11.625C14.0542 11.625 15.5 10.1792 15.5 8.39581C15.5 6.61239 14.0542 5.16665 12.2708 5.16665Z" fill="current"/>
</svg>
