<svg width="116" height="31" viewBox="0 0 116 31" fill="none" xmlns="http://www.w3.org/2000/svg">
<path d="M31.8625 24V13.5625H30.3125V11.2H31.8625V7.5125C31.8625 6.39583 32.0333 5.4375 32.375 4.6375C32.7167 3.82917 33.2042 3.20833 33.8375 2.775C34.4792 2.34167 35.2542 2.125 36.1625 2.125C36.7292 2.125 37.275 2.20833 37.8 2.375C38.325 2.54167 38.7792 2.775 39.1625 3.075L38.075 5.2625C37.6833 5.00417 37.225 4.875 36.7 4.875C36.2583 4.875 35.9125 4.9875 35.6625 5.2125C35.4125 5.42917 35.2333 5.7375 35.125 6.1375C35.025 6.5375 34.975 7.00833 34.975 7.55V11.2H38.0875V13.5625H34.975V24H31.8625ZM46.5656 24.4C45.3823 24.4 44.3073 24.1083 43.3406 23.525C42.3823 22.9333 41.6198 22.125 41.0531 21.1C40.4948 20.075 40.2156 18.9042 40.2156 17.5875C40.2156 16.2875 40.4865 15.1292 41.0281 14.1125C41.5781 13.0875 42.3323 12.2792 43.2906 11.6875C44.249 11.0958 45.3406 10.8 46.5656 10.8C47.5656 10.8 48.4865 11.0083 49.3281 11.425C50.1698 11.8417 50.8365 12.4208 51.3281 13.1625V11.2H54.4406V24H51.3281V21.95C50.7615 22.725 50.0656 23.3292 49.2406 23.7625C48.424 24.1875 47.5323 24.4 46.5656 24.4ZM47.4531 21.7375C48.2281 21.7375 48.9115 21.5625 49.5031 21.2125C50.0948 20.8542 50.5615 20.3625 50.9031 19.7375C51.2448 19.1125 51.4156 18.4 51.4156 17.6C51.4156 16.7917 51.2448 16.0792 50.9031 15.4625C50.5615 14.8375 50.0948 14.35 49.5031 14C48.9115 13.6417 48.2281 13.4625 47.4531 13.4625C46.6865 13.4625 46.0031 13.6417 45.4031 14C44.8031 14.35 44.3323 14.8375 43.9906 15.4625C43.649 16.0875 43.4781 16.8 43.4781 17.6C43.4781 18.4 43.649 19.1125 43.9906 19.7375C44.3323 20.3625 44.8031 20.8542 45.4031 21.2125C46.0031 21.5625 46.6865 21.7375 47.4531 21.7375ZM59.2689 24V11.2H62.3814V12.7375C62.8231 12.1708 63.4106 11.7083 64.1439 11.35C64.8856 10.9833 65.7314 10.8 66.6814 10.8C67.6648 10.8 68.5231 11.0125 69.2564 11.4375C69.9981 11.8542 70.5731 12.4458 70.9814 13.2125C71.3898 13.9792 71.5939 14.8875 71.5939 15.9375V24H68.4814V16.5875C68.4814 15.5208 68.2148 14.7 67.6814 14.125C67.1564 13.5417 66.4273 13.25 65.4939 13.25C64.8523 13.25 64.2981 13.3833 63.8314 13.65C63.3648 13.9083 63.0064 14.2583 62.7564 14.7C62.5064 15.1333 62.3814 15.6167 62.3814 16.15V24H59.2689ZM82.1629 30.875C80.4796 30.875 79.0587 30.5583 77.9004 29.925C76.7504 29.2917 75.9087 28.3667 75.3754 27.15L77.9254 25.925C78.2921 26.6167 78.8587 27.1667 79.6254 27.575C80.3921 27.9917 81.2379 28.2 82.1629 28.2C82.9796 28.2 83.7004 28.0375 84.3254 27.7125C84.9504 27.3875 85.4421 26.925 85.8004 26.325C86.1587 25.7333 86.3379 25.0333 86.3379 24.225V21.95C85.7879 22.7167 85.0962 23.3167 84.2629 23.75C83.4379 24.1833 82.5337 24.4 81.5504 24.4C80.3837 24.4 79.3212 24.1083 78.3629 23.525C77.4046 22.9417 76.6421 22.1375 76.0754 21.1125C75.5087 20.0875 75.2254 18.9167 75.2254 17.6C75.2254 16.2917 75.5004 15.1292 76.0504 14.1125C76.6087 13.0875 77.3671 12.2792 78.3254 11.6875C79.2921 11.0958 80.3921 10.8 81.6254 10.8C82.6087 10.8 83.5129 11.0083 84.3379 11.425C85.1712 11.8417 85.8379 12.4208 86.3379 13.1625V11.2H89.4504V24.35C89.4504 25.6667 89.1754 26.8125 88.6254 27.7875C88.0837 28.7708 87.2712 29.5292 86.1879 30.0625C85.1046 30.6042 83.7629 30.875 82.1629 30.875ZM82.4379 21.7375C83.2212 21.7375 83.9129 21.5625 84.5129 21.2125C85.1129 20.8542 85.5837 20.3667 85.9254 19.75C86.2671 19.125 86.4379 18.4125 86.4379 17.6125C86.4379 16.8125 86.2629 16.1 85.9129 15.475C85.5712 14.8417 85.1004 14.35 84.5004 14C83.9087 13.6417 83.2296 13.4625 82.4629 13.4625C81.6962 13.4625 81.0129 13.6417 80.4129 14C79.8129 14.35 79.3421 14.8417 79.0004 15.475C78.6587 16.1 78.4879 16.8125 78.4879 17.6125C78.4879 18.4125 78.6546 19.125 78.9879 19.75C79.3296 20.3667 79.7962 20.8542 80.3879 21.2125C80.9879 21.5625 81.6712 21.7375 82.4379 21.7375ZM100.257 24.4C98.89 24.4 97.665 24.1042 96.5816 23.5125C95.5066 22.9208 94.6525 22.1125 94.0191 21.0875C93.3941 20.0625 93.0816 18.9083 93.0816 17.625C93.0816 16.675 93.2608 15.7875 93.6191 14.9625C93.9775 14.1375 94.4733 13.4125 95.1066 12.7875C95.74 12.1625 96.4775 11.675 97.3191 11.325C98.1608 10.975 99.0691 10.8 100.044 10.8C101.377 10.8 102.544 11.075 103.544 11.625C104.552 12.175 105.336 12.9417 105.894 13.925C106.461 14.9083 106.744 16.0542 106.744 17.3625C106.744 17.4708 106.74 17.5625 106.732 17.6375C106.723 17.7042 106.707 17.8208 106.682 17.9875H96.2566C96.2566 18.7625 96.4316 19.4458 96.7816 20.0375C97.1316 20.6208 97.6191 21.0792 98.2441 21.4125C98.8775 21.7375 99.6025 21.9 100.419 21.9C101.194 21.9 101.882 21.7458 102.482 21.4375C103.09 21.1208 103.64 20.6417 104.132 20L106.394 21.1625C105.786 22.1792 104.94 22.975 103.857 23.55C102.782 24.1167 101.582 24.4 100.257 24.4ZM96.3941 16.0375H103.657C103.548 15.4542 103.327 14.95 102.994 14.525C102.661 14.1 102.24 13.7708 101.732 13.5375C101.223 13.2958 100.657 13.175 100.032 13.175C99.3733 13.175 98.7858 13.2917 98.2691 13.525C97.7525 13.7583 97.3316 14.0875 97.0066 14.5125C96.6816 14.9375 96.4775 15.4458 96.3941 16.0375ZM110.465 24V2.5H113.578V24H110.465Z" fill="current"/>
<path fill-rule="evenodd" clip-rule="evenodd" d="M15.1738 9.27457C16.4675 7.02695 17.4839 5.58357 18.8273 4.05341C19.343 3.46592 19.8535 2.87345 20.3556 2.27379C20.5844 2.00063 21.028 1.47908 20.8327 1.17512C20.9564 0.775697 19.9528 1.00748 19.6206 1.11797C19.2665 1.23587 18.909 1.34562 18.5533 1.45939C18.4499 1.4486 18.3833 1.51813 18.3096 1.57306C16.4607 2.30089 14.8019 3.35627 13.2713 4.62725C12.2748 5.45509 11.3785 6.38728 10.5515 7.38965C9.80075 8.29803 9.2449 8.40175 8.20401 7.83944C8.16861 7.82029 8.13311 7.8024 8.09803 7.78282C6.94446 7.12665 5.71486 6.69399 4.41425 6.46264C3.31306 6.26578 2.20827 6.24282 1.09978 6.36929C0.560499 6.43067 0.287619 6.72479 0.332996 7.16538C0.36654 7.48987 0.577065 7.65889 0.844183 7.78801C1.89382 8.29348 3.49509 9.46295 4.50573 10.0494C5.40391 10.6032 5.99833 13.9133 7.17412 18.148C8.23241 21.9596 9.73942 27.8394 10.1689 29.6266C10.2552 29.9863 10.5953 29.8632 10.5988 29.8688C10.737 30.1013 11.9174 24.3466 12.8788 19.2766C13.8088 14.3666 14.5117 10.1556 15.1738 9.27457Z" fill="current"/>
<path d="M8.87652 6.17593C10.5062 6.17593 11.8273 4.8171 11.8273 3.1409C11.8273 1.4647 10.5062 0.105865 8.87652 0.105865C7.24687 0.105865 5.92578 1.4647 5.92578 3.1409C5.92578 4.8171 7.24687 6.17593 8.87652 6.17593Z" fill="current"/>
</svg>
