<svg width="148" height="38" viewBox="0 0 148 38" fill="none" xmlns="http://www.w3.org/2000/svg">
<path d="M41.728 28V13.968H39.92V11.616H41.728V6.288C41.728 4.96533 41.92 3.83467 42.304 2.896C42.6987 1.95733 43.264 1.24267 44 0.751999C44.7467 0.250665 45.6533 -1.90735e-06 46.72 -1.90735e-06C47.3813 -1.90735e-06 48.0053 0.0959981 48.592 0.287998C49.1893 0.469332 49.7067 0.730666 50.144 1.072L49.056 3.28C48.5653 2.91733 47.9627 2.736 47.248 2.736C46.6613 2.736 46.192 2.88 45.84 3.168C45.488 3.456 45.232 3.86667 45.072 4.4C44.912 4.92267 44.832 5.54667 44.832 6.272V11.616H48.912V13.968H44.832V28H41.728ZM60.224 28.512C58.6987 28.512 57.3173 28.1387 56.08 27.392C54.8533 26.6347 53.8773 25.6 53.152 24.288C52.4373 22.976 52.08 21.4773 52.08 19.792C52.08 18.128 52.432 16.6453 53.136 15.344C53.84 14.032 54.8053 12.9973 56.032 12.24C57.2587 11.4827 58.656 11.104 60.224 11.104C61.6107 11.104 62.8747 11.4133 64.016 12.032C65.168 12.6507 66.0587 13.5093 66.688 14.608V11.616H69.792V28H66.688V24.928C65.9733 26.0587 65.056 26.9387 63.936 27.568C62.816 28.1973 61.5787 28.512 60.224 28.512ZM61.056 25.84C62.176 25.84 63.1627 25.584 64.016 25.072C64.88 24.5493 65.5573 23.8347 66.048 22.928C66.5387 22.0213 66.784 20.9813 66.784 19.808C66.784 18.6347 66.5387 17.5947 66.048 16.688C65.5573 15.7813 64.88 15.072 64.016 14.56C63.1627 14.0373 62.176 13.776 61.056 13.776C59.9467 13.776 58.96 14.0373 58.096 14.56C57.232 15.072 56.5493 15.7813 56.048 16.688C55.5573 17.5947 55.312 18.6347 55.312 19.808C55.312 20.9707 55.5573 22.0107 56.048 22.928C56.5493 23.8347 57.232 24.5493 58.096 25.072C58.96 25.584 59.9467 25.84 61.056 25.84ZM76.3425 28V11.616H79.4465V13.728C79.9478 12.9813 80.6678 12.3573 81.6065 11.856C82.5452 11.3547 83.6598 11.104 84.9505 11.104C86.2198 11.104 87.3185 11.3707 88.2465 11.904C89.1745 12.4267 89.8892 13.184 90.3905 14.176C90.9025 15.168 91.1585 16.352 91.1585 17.728V28H88.0545V18.352C88.0545 16.816 87.6865 15.6373 86.9505 14.816C86.2145 13.9947 85.1798 13.584 83.8465 13.584C82.9292 13.584 82.1398 13.7707 81.4785 14.144C80.8278 14.5067 80.3265 14.9973 79.9745 15.616C79.6225 16.224 79.4465 16.8907 79.4465 17.616V28H76.3425ZM104.829 36.8C102.717 36.8 100.936 36.3947 99.485 35.584C98.0343 34.7733 96.9623 33.5893 96.269 32.032L98.845 30.816C99.3357 31.8293 100.12 32.6347 101.197 33.232C102.274 33.84 103.485 34.144 104.829 34.144C105.981 34.144 107.005 33.9147 107.901 33.456C108.808 32.9973 109.517 32.3413 110.029 31.488C110.552 30.6347 110.813 29.616 110.813 28.432V24.928C110.12 26.048 109.208 26.928 108.077 27.568C106.946 28.1973 105.698 28.512 104.333 28.512C102.818 28.512 101.448 28.1387 100.221 27.392C98.9943 26.6453 98.0183 25.616 97.293 24.304C96.5677 22.992 96.205 21.4933 96.205 19.808C96.205 18.1333 96.5623 16.6453 97.277 15.344C97.9917 14.032 98.9623 12.9973 100.189 12.24C101.426 11.4827 102.829 11.104 104.397 11.104C105.762 11.104 107.01 11.4133 108.141 12.032C109.272 12.6507 110.162 13.5093 110.813 14.608V11.616H113.917V28.448C113.917 30.1973 113.56 31.696 112.845 32.944C112.141 34.192 111.112 35.1467 109.757 35.808C108.402 36.4693 106.76 36.8 104.829 36.8ZM105.165 25.84C106.285 25.84 107.277 25.584 108.141 25.072C109.016 24.5493 109.698 23.8347 110.189 22.928C110.68 22.0213 110.925 20.9867 110.925 19.824C110.925 18.6507 110.674 17.6107 110.173 16.704C109.682 15.7867 109.005 15.072 108.141 14.56C107.277 14.0373 106.29 13.776 105.181 13.776C104.072 13.776 103.085 14.0373 102.221 14.56C101.357 15.072 100.674 15.7867 100.173 16.704C99.6823 17.6107 99.437 18.6507 99.437 19.824C99.437 20.9867 99.6823 22.0213 100.173 22.928C100.664 23.8347 101.341 24.5493 102.205 25.072C103.069 25.584 104.056 25.84 105.165 25.84ZM128.039 28.512C126.322 28.512 124.781 28.1333 123.415 27.376C122.05 26.6187 120.973 25.5893 120.183 24.288C119.394 22.976 118.999 21.4987 118.999 19.856C118.999 18.64 119.223 17.504 119.671 16.448C120.119 15.392 120.743 14.464 121.543 13.664C122.343 12.8533 123.271 12.224 124.327 11.776C125.383 11.328 126.514 11.104 127.719 11.104C129.426 11.104 130.919 11.456 132.199 12.16C133.49 12.864 134.493 13.8453 135.207 15.104C135.933 16.3627 136.295 17.824 136.295 19.488C136.295 19.6267 136.29 19.7387 136.279 19.824C136.269 19.9093 136.247 20.0213 136.215 20.16H122.135C122.135 21.3013 122.391 22.3093 122.903 23.184C123.426 24.0587 124.141 24.7467 125.047 25.248C125.965 25.7387 127.015 25.984 128.199 25.984C129.319 25.984 130.322 25.7547 131.207 25.296C132.093 24.8373 132.861 24.1547 133.511 23.248L135.783 24.432C135.005 25.7227 133.933 26.7253 132.567 27.44C131.213 28.1547 129.703 28.512 128.039 28.512ZM122.295 17.872H133.175C133.026 17.0293 132.695 16.2933 132.183 15.664C131.682 15.024 131.047 14.528 130.279 14.176C129.522 13.8133 128.685 13.632 127.767 13.632C126.807 13.632 125.938 13.808 125.159 14.16C124.391 14.5013 123.757 14.992 123.255 15.632C122.765 16.2613 122.445 17.008 122.295 17.872ZM141.405 28V0.48H144.509V28H141.405Z" fill="current"/>
<g clip-path="url(#clip0)">
<path fill-rule="evenodd" clip-rule="evenodd" d="M19.5096 11.5931C21.1729 8.78358 22.4798 6.97935 24.207 5.06663C24.87 4.33227 25.5264 3.59168 26.172 2.8421C26.4662 2.50065 27.0365 1.8487 26.7854 1.46875C26.9444 0.969471 25.654 1.2592 25.227 1.39731C24.7718 1.54469 24.312 1.68188 23.8547 1.82409C23.7217 1.8106 23.6361 1.89752 23.5414 1.96618C21.1642 2.87597 19.0315 4.19521 17.0636 5.78393C15.7823 6.81874 14.6301 7.98399 13.5667 9.23695C12.6014 10.3724 11.8868 10.5021 10.5485 9.79921C10.503 9.77526 10.4573 9.7529 10.4122 9.72843C8.92908 8.9082 7.34816 8.36738 5.67596 8.07819C4.26014 7.83212 2.8397 7.80341 1.41449 7.9615C0.72113 8.03823 0.370285 8.40588 0.428626 8.95662C0.471754 9.36224 0.742429 9.57351 1.08587 9.73491C2.4354 10.3668 4.49417 11.8286 5.79357 12.5617C6.94837 13.2539 7.71263 17.3916 9.22436 22.685C10.585 27.4496 12.5226 34.7993 13.0748 37.0334C13.1858 37.4829 13.623 37.329 13.6275 37.3361C13.8052 37.6267 15.3229 30.4333 16.5589 24.0958C17.7547 17.9582 18.6584 12.6945 19.5096 11.5931Z" fill="current"/>
<path d="M11.4125 7.71995C13.5077 7.71995 15.2063 6.0214 15.2063 3.92614C15.2063 1.83087 13.5077 0.132324 11.4125 0.132324C9.3172 0.132324 7.61865 1.83087 7.61865 3.92614C7.61865 6.0214 9.3172 7.71995 11.4125 7.71995Z" fill="current"/>
</g>
<defs>
<clipPath id="clip0">
<rect width="27" height="37.5002" fill="white"/>
</clipPath>
</defs>
</svg>
