<svg width="301" height="104" viewBox="0 0 301 104" fill="none" xmlns="http://www.w3.org/2000/svg">
<path d="M6.305 79H17.51V41.425H28.715V32.92H17.51V19.78C17.51 16.87 17.945 14.545 18.815 12.805C19.685 11.035 21.32 10.15 23.72 10.15C25.64 10.15 27.29 10.615 28.67 11.545L32.585 3.67C29.675 1.39 26.075 0.249995 21.785 0.249995C16.895 0.249995 13.085 1.99 10.355 5.47C7.655 8.92 6.305 13.645 6.305 19.645V32.92H0.725V41.425H6.305V79ZM59.2363 80.44C62.7163 80.44 65.9263 79.675 68.8663 78.145C71.8363 76.585 74.3413 74.41 76.3812 71.62V79H87.5863V32.92H76.3812V39.985C74.6113 37.315 72.1963 35.23 69.1363 33.73C66.1063 32.23 62.8063 31.48 59.2363 31.48C54.7963 31.48 50.8513 32.545 47.4013 34.675C43.9813 36.805 41.2813 39.715 39.3013 43.405C37.3513 47.095 36.3763 51.265 36.3763 55.915C36.3763 60.655 37.3813 64.87 39.3913 68.56C41.4313 72.25 44.1763 75.16 47.6263 77.29C51.1063 79.39 54.9763 80.44 59.2363 80.44ZM62.4313 70.855C59.6713 70.855 57.2113 70.21 55.0513 68.92C52.8913 67.63 51.1963 65.875 49.9663 63.655C48.7363 61.405 48.1213 58.84 48.1213 55.96C48.1213 53.08 48.7363 50.515 49.9663 48.265C51.1963 46.015 52.8913 44.26 55.0513 43C57.2113 41.71 59.6713 41.065 62.4313 41.065C65.2213 41.065 67.6813 41.71 69.8113 43C71.9713 44.26 73.6513 46.015 74.8513 48.265C76.0813 50.485 76.6963 53.05 76.6963 55.96C76.6963 58.84 76.0813 61.405 74.8513 63.655C73.6513 65.905 71.9713 67.675 69.8113 68.965C67.6813 70.225 65.2213 70.855 62.4313 70.855ZM104.968 79H116.173V50.74C116.173 47.86 117.163 45.4 119.143 43.36C121.153 41.32 123.898 40.3 127.378 40.3C130.738 40.3 133.363 41.35 135.253 43.45C137.173 45.52 138.133 48.475 138.133 52.315V79H149.338V49.975C149.338 44.335 147.718 39.85 144.478 36.52C141.238 33.16 136.963 31.48 131.653 31.48C128.233 31.48 125.188 32.14 122.518 33.46C119.878 34.75 117.763 36.415 116.173 38.455V32.92H104.968V79ZM187.386 103.75C195.996 103.75 202.521 101.605 206.961 97.315C211.401 93.025 213.621 87.34 213.621 80.26V32.92H202.416V39.985C200.586 37.315 198.186 35.23 195.216 33.73C192.276 32.23 189.021 31.48 185.451 31.48C181.011 31.48 177.051 32.545 173.571 34.675C170.121 36.805 167.391 39.715 165.381 43.405C163.401 47.095 162.411 51.28 162.411 55.96C162.411 60.73 163.431 64.96 165.471 68.65C167.511 72.31 170.256 75.19 173.706 77.29C177.156 79.39 180.981 80.44 185.181 80.44C188.721 80.44 191.976 79.66 194.946 78.1C197.946 76.54 200.436 74.38 202.416 71.62V79.81C202.416 84.16 201.006 87.625 198.186 90.205C195.366 92.815 191.766 94.12 187.386 94.12C184.056 94.12 181.011 93.37 178.251 91.87C175.491 90.4 173.451 88.42 172.131 85.93L162.951 90.34C164.901 94.72 167.946 98.05 172.086 100.33C176.226 102.61 181.326 103.75 187.386 103.75ZM188.376 70.855C185.616 70.855 183.156 70.225 180.996 68.965C178.866 67.675 177.186 65.905 175.956 63.655C174.756 61.405 174.156 58.855 174.156 56.005C174.156 53.095 174.771 50.53 176.001 48.31C177.231 46.06 178.926 44.29 181.086 43C183.246 41.71 185.706 41.065 188.466 41.065C191.226 41.065 193.671 41.71 195.801 43C197.961 44.29 199.656 46.06 200.886 48.31C202.146 50.53 202.776 53.095 202.776 56.005C202.776 58.885 202.161 61.45 200.931 63.7C199.701 65.92 198.006 67.675 195.846 68.965C193.686 70.225 191.196 70.855 188.376 70.855ZM252.524 80.44C257.294 80.44 261.614 79.42 265.484 77.38C269.384 75.31 272.429 72.445 274.619 68.785L266.474 64.6C262.964 69.16 258.509 71.44 253.109 71.44C248.669 71.44 245.054 70.135 242.264 67.525C239.504 64.915 238.124 61.525 238.124 57.355H275.654C275.804 56.365 275.879 55.615 275.879 55.105C275.879 50.395 274.859 46.27 272.819 42.73C270.809 39.19 267.989 36.43 264.359 34.45C260.759 32.47 256.559 31.48 251.759 31.48C247.109 31.48 242.879 32.575 239.069 34.765C235.289 36.955 232.274 39.91 230.024 43.63C227.804 47.32 226.694 51.46 226.694 56.05C226.694 60.67 227.819 64.825 230.069 68.515C232.319 72.205 235.394 75.115 239.294 77.245C243.194 79.375 247.604 80.44 252.524 80.44ZM238.619 50.335C239.069 47.185 240.479 44.68 242.849 42.82C245.219 40.96 248.174 40.03 251.714 40.03C255.104 40.03 257.984 40.975 260.354 42.865C262.724 44.725 264.194 47.215 264.764 50.335H238.619ZM289.275 79H300.48V1.6H289.275V79Z" fill="current"/>
</svg>
