<svg width="82" height="29" viewBox="0 0 82 29" fill="none" xmlns="http://www.w3.org/2000/svg">
<path d="M1.8892 22H4.2948V11.1252H7.4568V9.3024H4.2948V5.1608C4.2948 4.32587 4.43533 3.6604 4.7164 3.1644C5.00573 2.6684 5.48933 2.4204 6.1672 2.4204C6.72107 2.4204 7.18813 2.56093 7.5684 2.842L8.4116 1.1308C7.70067 0.576933 6.81613 0.299999 5.758 0.299999C4.518 0.299999 3.5632 0.729866 2.8936 1.5896C2.224 2.44107 1.8892 3.6356 1.8892 5.1732V9.3024H0.488V11.1252H1.8892V22ZM16.2236 22.3968C17.2735 22.3968 18.2324 22.1529 19.1004 21.6652C19.9684 21.1775 20.6793 20.4955 21.2332 19.6192V22H23.6388V9.3024H21.2332V11.6212C20.7455 10.7697 20.0552 10.1043 19.1624 9.6248C18.2779 9.14533 17.2983 8.9056 16.2236 8.9056C15.0084 8.9056 13.9255 9.19907 12.9748 9.786C12.0241 10.3729 11.276 11.1748 10.7304 12.1916C10.1848 13.2001 9.912 14.3492 9.912 15.6388C9.912 16.9449 10.1889 18.1064 10.7428 19.1232C11.3049 20.14 12.0613 20.9419 13.012 21.5288C13.9709 22.1075 15.0415 22.3968 16.2236 22.3968ZM16.8684 20.326C16.0087 20.326 15.244 20.1276 14.5744 19.7308C13.9048 19.3257 13.3757 18.7719 12.9872 18.0692C12.6069 17.3583 12.4168 16.5523 12.4168 15.6512C12.4168 14.7419 12.6069 13.9359 12.9872 13.2332C13.3757 12.5305 13.9048 11.9808 14.5744 11.584C15.244 11.1789 16.0087 10.9764 16.8684 10.9764C17.7364 10.9764 18.5011 11.1789 19.1624 11.584C19.832 11.9808 20.3569 12.5305 20.7372 13.2332C21.1175 13.9359 21.3076 14.7419 21.3076 15.6512C21.3076 16.5605 21.1175 17.3665 20.7372 18.0692C20.3569 18.7719 19.832 19.3257 19.1624 19.7308C18.5011 20.1276 17.7364 20.326 16.8684 20.326ZM28.7154 22H31.121V13.9524C31.121 13.1092 31.4228 12.3776 32.0262 11.7576C32.6297 11.1376 33.4646 10.8276 34.531 10.8276C35.5644 10.8276 36.3662 11.1459 36.9366 11.7824C37.507 12.4189 37.7922 13.3324 37.7922 14.5228V22H40.1978V14.0392C40.1978 12.4355 39.7638 11.1789 38.8958 10.2696C38.0278 9.36027 36.8581 8.9056 35.3866 8.9056C34.3864 8.9056 33.5225 9.09987 32.795 9.4884C32.0676 9.87693 31.5096 10.3605 31.121 10.9392V9.3024H28.7154V22ZM50.7925 28.82C53.041 28.82 54.777 28.2496 56.0005 27.1088C57.2239 25.968 57.8357 24.3808 57.8357 22.3472V9.3024H55.4301V11.6212C54.9258 10.7697 54.2355 10.1043 53.3593 9.6248C52.483 9.14533 51.5158 8.9056 50.4577 8.9056C49.2425 8.9056 48.1554 9.19907 47.1965 9.786C46.2458 10.3729 45.4935 11.1748 44.9397 12.1916C44.3858 13.2001 44.1089 14.3533 44.1089 15.6512C44.1089 16.9573 44.3899 18.1188 44.9521 19.1356C45.5142 20.1524 46.2706 20.9501 47.2213 21.5288C48.1719 22.1075 49.2342 22.3968 50.4081 22.3968C51.4662 22.3968 52.4334 22.1529 53.3097 21.6652C54.1859 21.1692 54.8927 20.4872 55.4301 19.6192V22.3348C55.4301 23.2524 55.2275 24.0419 54.8225 24.7032C54.4257 25.3645 53.8759 25.8729 53.1733 26.2284C52.4789 26.5839 51.6853 26.7616 50.7925 26.7616C49.7509 26.7616 48.8126 26.526 47.9777 26.0548C47.1427 25.5919 46.5351 24.9677 46.1549 24.1824L44.1585 25.1248C45.2579 27.5883 47.4693 28.82 50.7925 28.82ZM51.0529 20.326C50.1931 20.326 49.4285 20.1276 48.7589 19.7308C48.0893 19.3257 47.5643 18.7719 47.1841 18.0692C46.8038 17.3665 46.6137 16.5647 46.6137 15.6636C46.6137 14.7543 46.8038 13.9483 47.1841 13.2456C47.5726 12.5347 48.1017 11.9808 48.7713 11.584C49.4409 11.1789 50.2055 10.9764 51.0653 10.9764C51.925 10.9764 52.6897 11.1789 53.3593 11.584C54.0289 11.9808 54.5538 12.5347 54.9341 13.2456C55.3226 13.9483 55.5169 14.7543 55.5169 15.6636C55.5169 16.5647 55.3267 17.3665 54.9465 18.0692C54.5662 18.7719 54.0371 19.3257 53.3593 19.7308C52.6897 20.1276 51.9209 20.326 51.0529 20.326ZM68.7804 22.3968C70.07 22.3968 71.2398 22.1199 72.2896 21.566C73.3478 21.0121 74.1786 20.2351 74.782 19.2348L73.0212 18.3172C72.0044 19.7308 70.6322 20.4376 68.9044 20.4376C67.9868 20.4376 67.1726 20.2475 66.4616 19.8672C65.759 19.4787 65.2051 18.9455 64.8 18.2676C64.4032 17.5897 64.2048 16.8085 64.2048 15.924H75.1168C75.1582 15.7504 75.1788 15.5768 75.1788 15.4032C75.1788 14.1136 74.8978 12.9811 74.3356 12.0056C73.7818 11.0301 73.0047 10.2696 72.0044 9.724C71.0124 9.1784 69.8551 8.9056 68.5324 8.9056C67.5983 8.9056 66.722 9.0792 65.9036 9.4264C65.0852 9.7736 64.366 10.2613 63.746 10.8896C63.126 11.5096 62.6424 12.2288 62.2952 13.0472C61.948 13.8656 61.7744 14.746 61.7744 15.6884C61.7744 16.9615 62.0803 18.1064 62.692 19.1232C63.3038 20.1317 64.1387 20.9295 65.1968 21.5164C66.255 22.1033 67.4495 22.3968 68.7804 22.3968ZM64.3288 14.1508C64.4942 13.1505 64.9612 12.3528 65.73 11.7576C66.4988 11.1624 67.4454 10.8648 68.5696 10.8648C69.636 10.8648 70.5536 11.1707 71.3224 11.7824C72.0995 12.3859 72.579 13.1753 72.7608 14.1508H64.3288ZM79.1389 22H81.5445V0.672H79.1389V22Z" fill="current"/>
</svg>
