<svg width="31" height="31" viewBox="0 0 31 31" fill="none" xmlns="http://www.w3.org/2000/svg">
<path fill-rule="evenodd" clip-rule="evenodd" d="M14.6931 2.86636C15.1649 2.48896 15.8352 2.48896 16.3069 2.86636L25.9941 10.6161C25.9942 10.6162 25.994 10.6161 25.9941 10.6161L29.2236 13.1997C29.7806 13.6453 29.8709 14.4582 29.4253 15.0152C28.9797 15.5723 28.1668 15.6626 27.6098 15.2169L26.4792 14.3125V27.125C26.4792 27.8383 25.9009 28.4166 25.1875 28.4166H5.81251C5.09914 28.4166 4.52084 27.8383 4.52084 27.125V14.3125L3.39024 15.2169C2.83319 15.6626 2.02036 15.5723 1.57472 15.0152C1.12908 14.4582 1.2194 13.6453 1.77644 13.1997L5.00561 10.6164C5.00574 10.6163 5.00548 10.6165 5.00561 10.6164L14.6931 2.86636ZM7.10417 12.2458L15.5 5.52912L23.8958 12.2458V25.8333H20.0208V18.7291C20.0208 18.0158 19.4425 17.4375 18.7292 17.4375H12.2708C11.5575 17.4375 10.9792 18.0158 10.9792 18.7291V25.8333H7.10417V12.2458ZM13.5625 25.8333H17.4375V20.0208H13.5625V25.8333Z" fill="current"/>
</svg>
