<svg width="34" height="34" viewBox="0 0 34 34" fill="none" xmlns="http://www.w3.org/2000/svg">
<path d="M31.8372 16.3295L17.6705 2.16282C17.4935 1.98692 17.2542 1.88818 17.0047 1.88818C16.7552 1.88818 16.5158 1.98692 16.3388 2.16282L2.17217 16.3295C2.01744 16.5102 1.93659 16.7426 1.94577 16.9803C1.95495 17.218 2.05349 17.4434 2.22169 17.6116C2.38989 17.7798 2.61537 17.8784 2.85306 17.8875C3.09075 17.8967 3.32316 17.8159 3.50383 17.6612L16.9999 4.16504L30.4961 17.6706C30.6767 17.8253 30.9091 17.9062 31.1468 17.897C31.3845 17.8878 31.61 17.7893 31.7782 17.6211C31.9464 17.4529 32.0449 17.2274 32.0541 16.9897C32.0633 16.752 31.9824 16.5196 31.8277 16.3389L31.8372 16.3295Z" fill="current"/>
<path d="M26.4445 30.2222H21.7223V20.7778H12.2779V30.2222H7.55564V17L5.66675 18.8889V30.2222C5.66675 30.7232 5.86576 31.2036 6.21999 31.5579C6.57423 31.9121 7.05467 32.1111 7.55564 32.1111H14.1667V22.6666H19.8334V32.1111H26.4445C26.9455 32.1111 27.4259 31.9121 27.7802 31.5579C28.1344 31.2036 28.3334 30.7232 28.3334 30.2222V18.6622L26.4445 16.7733V30.2222Z" fill="current"/>
</svg>
