<svg version="1.1" id="Capa_1" xmlns="http://www.w3.org/2000/svg" xmlns:xlink="http://www.w3.org/1999/xlink" x="0px" y="0px"
	 width="204.09px" height="283.46px" viewBox="0 0 204.09 283.46" enable-background="new 0 0 204.09 283.46" xml:space="preserve">
<path fill-rule="evenodd" clip-rule="evenodd" fill="current" d="M147.471,87.632c12.573-21.237,22.451-34.875,35.507-49.333
	c5.012-5.551,9.973-11.149,14.853-16.815c2.224-2.581,6.535-7.509,4.637-10.381c1.202-3.774-8.552-1.584-11.78-0.54
	c-3.441,1.114-6.916,2.151-10.373,3.226c-1.005-0.102-1.652,0.555-2.368,1.074c-17.969,6.877-34.09,16.849-48.965,28.858
	c-9.685,7.822-18.395,16.63-26.433,26.101c-7.296,8.583-12.698,9.563-22.814,4.25c-0.344-0.181-0.689-0.35-1.03-0.535
	c-11.211-6.2-23.161-10.288-35.801-12.474c-10.702-1.86-21.439-2.077-32.212-0.882c-5.241,0.58-7.893,3.359-7.452,7.522
	c0.326,3.066,2.372,4.663,4.968,5.883c10.201,4.776,25.763,15.826,35.585,21.367c8.729,5.233,14.506,36.509,25.933,76.521
	c10.285,36.015,24.931,91.571,29.105,108.458c0.839,3.398,4.144,2.235,4.178,2.288c1.343,2.197,12.815-52.177,22.158-100.082
	C134.206,135.745,141.037,95.957,147.471,87.632z M58.709,35.009"/>
<circle fill-rule="evenodd" clip-rule="evenodd" fill="current" cx="86.265" cy="29.677" r="28.677"/>
</svg>