<?xml version="1.0"?>
<svg xmlns="http://www.w3.org/2000/svg" version="1.1" width="512" height="512" x="0" y="0" viewBox="0 0 642 642.66702" style="enable-background:new 0 0 512 512" xml:space="preserve" class="">
<g>
<path xmlns="http://www.w3.org/2000/svg" d="m392.347656 148.816406c-2-3.742187-5.929687-6.039062-10.171875-5.949218h-247.921875c-6.203125 0-11.238281 5.03125-11.238281 11.242187v102.203125c0 6.207031 5.035156 11.242188 11.238281 11.242188 6.210938 0 11.242188-5.035157 11.242188-11.242188v-90.960938h160.195312l-107.863281 32.292969c-4.757813 1.425781-8.015625 5.800781-8.015625 10.765625v317.300782h-44.316406v-86.976563c0-6.210937-5.03125-11.238281-11.242188-11.238281-6.203125 0-11.238281 5.027344-11.238281 11.238281v98.21875c0 6.210937 5.035156 11.242187 11.238281 11.242187h55.558594v43.0625c0 3.554688 1.675781 6.894532 4.527344 9.019532 2.847656 2.121094 6.53125 2.769531 9.9375 1.75l181.375-54.300782c4.761718-1.425781 8.019531-5.808593 8.019531-10.773437v-382.585937c.039063-1.929688-.414063-3.84375-1.324219-5.550782zm-21.15625 379.769532-158.898437 47.574218v-359.378906l158.898437-47.570312zm0 0" fill="current" data-original="#000000" style="" class=""/>
<path xmlns="http://www.w3.org/2000/svg" d="m254.59375 396.414062c16.558594 0 29.976562-13.421874 29.976562-29.972656 0-16.554687-13.417968-29.976562-29.976562-29.976562-16.554688 0-29.976562 13.421875-29.976562 29.976562.019531 16.542969 13.433593 29.953125 29.976562 29.972656zm0-37.46875c4.140625 0 7.492188 3.355469 7.492188 7.496094 0 4.136719-3.351563 7.492188-7.492188 7.492188-4.136719 0-7.492188-3.355469-7.492188-7.492188.003907-4.140625 3.359376-7.492187 7.492188-7.496094zm0 0" fill="current" data-original="#000000" style="" class=""/>
<path xmlns="http://www.w3.org/2000/svg" d="m264.585938 119.902344c33.113281 0 59.953124-26.84375 59.953124-59.949219 0-33.109375-26.839843-59.953125-59.953124-59.953125-33.109376 0-59.953126 26.84375-59.953126 59.953125-.082031 15.921875 6.207032 31.222656 17.46875 42.488281 11.257813 11.261719 26.558594 17.550782 42.484376 17.460938zm0-99.917969c22.078124 0 39.96875 17.894531 39.96875 39.96875 0 22.070313-17.890626 39.964844-39.96875 39.964844-22.074219 0-39.96875-17.894531-39.96875-39.964844 0-22.074219 17.894531-39.96875 39.96875-39.96875zm0 0" fill="current" data-original="#000000" style="" class=""/>
<path xmlns="http://www.w3.org/2000/svg" d="m249.75 55.0625 9.296875 5.960938v22.234374c0 5.519532 4.476563 9.992188 9.992187 9.992188 5.519532 0 9.992188-4.472656 9.992188-9.992188v-27.703124c0-3.402344-1.730469-6.574219-4.601562-8.414063l-13.902344-8.910156c-4.644532-2.976563-10.828125-1.621094-13.804688 3.027343-2.976562 4.648438-1.625 10.828126 3.027344 13.804688zm0 0" fill="current" data-original="#000000" style="" class=""/>
<path xmlns="http://www.w3.org/2000/svg" d="m31.933594 356.449219h134c6.207031 0 11.242187-5.035157 11.242187-11.242188 0-6.210937-5.035156-11.242187-11.242187-11.242187h-134l32.035156-32.035156c4.386719-4.390626 4.386719-11.507813 0-15.894532-4.390625-4.390625-11.507812-4.390625-15.898438 0l-51.222656 51.222656c-4.386718 4.386719-4.386718 11.503907 0 15.898438l51.222656 51.222656c4.390626 4.390625 11.507813 4.390625 15.898438 0 4.386719-4.390625 4.386719-11.511718 0-15.894531zm0 0" fill="current" data-original="#000000" style="" class=""/></g></svg>
