<svg width="31" height="31" viewBox="0 0 31 31" fill="none" xmlns="http://www.w3.org/2000/svg">
<path fill-rule="evenodd" clip-rule="evenodd" d="M3.84253 7.71757C3.84253 7.0042 4.42083 6.4259 5.1342 6.4259H25.8009C26.5143 6.4259 27.0926 7.0042 27.0926 7.71757C27.0926 8.43094 26.5143 9.00924 25.8009 9.00924H5.1342C4.42083 9.00924 3.84253 8.43094 3.84253 7.71757ZM3.84253 15.4676C3.84253 14.7542 4.42083 14.1759 5.1342 14.1759H25.8009C26.5143 14.1759 27.0926 14.7542 27.0926 15.4676C27.0926 16.1809 26.5143 16.7592 25.8009 16.7592H5.1342C4.42083 16.7592 3.84253 16.1809 3.84253 15.4676ZM3.84253 23.2176C3.84253 22.5042 4.42083 21.9259 5.1342 21.9259H25.8009C26.5143 21.9259 27.0926 22.5042 27.0926 23.2176C27.0926 23.9309 26.5143 24.5092 25.8009 24.5092H5.1342C4.42083 24.5092 3.84253 23.9309 3.84253 23.2176Z" fill="current"/>
</svg>
