<svg width="35" height="35" viewBox="0 0 35 35" fill="none" xmlns="http://www.w3.org/2000/svg">
<path d="M31.1112 28.1944H3.88897C3.63112 28.1944 3.38383 28.092 3.20151 27.9097C3.01918 27.7274 2.91675 27.4801 2.91675 27.2222C2.91675 26.9644 3.01918 26.7171 3.20151 26.5348C3.38383 26.3524 3.63112 26.25 3.88897 26.25H31.1112C31.369 26.25 31.6163 26.3524 31.7987 26.5348C31.981 26.7171 32.0834 26.9644 32.0834 27.2222C32.0834 27.4801 31.981 27.7274 31.7987 27.9097C31.6163 28.092 31.369 28.1944 31.1112 28.1944Z" fill="current"/>
<path d="M31.1112 18.4722H3.88897C3.63112 18.4722 3.38383 18.3698 3.20151 18.1875C3.01918 18.0051 2.91675 17.7578 2.91675 17.5C2.91675 17.2421 3.01918 16.9949 3.20151 16.8125C3.38383 16.6302 3.63112 16.5278 3.88897 16.5278H31.1112C31.369 16.5278 31.6163 16.6302 31.7987 16.8125C31.981 16.9949 32.0834 17.2421 32.0834 17.5C32.0834 17.7578 31.981 18.0051 31.7987 18.1875C31.6163 18.3698 31.369 18.4722 31.1112 18.4722Z" fill="current"/>
<path d="M31.1112 8.74999H3.88897C3.63112 8.74999 3.38383 8.64756 3.20151 8.46523C3.01918 8.2829 2.91675 8.03561 2.91675 7.77776C2.91675 7.51991 3.01918 7.27263 3.20151 7.0903C3.38383 6.90797 3.63112 6.80554 3.88897 6.80554H31.1112C31.369 6.80554 31.6163 6.90797 31.7987 7.0903C31.981 7.27263 32.0834 7.51991 32.0834 7.77776C32.0834 8.03561 31.981 8.2829 31.7987 8.46523C31.6163 8.64756 31.369 8.74999 31.1112 8.74999Z" fill="current"/>
</svg>
