<svg width="21" height="30" viewBox="0 0 21 30" fill="none" xmlns="http://www.w3.org/2000/svg">
<path fill-rule="evenodd" clip-rule="evenodd" d="M15.1742 9.27455C16.468 7.02693 17.4844 5.58356 18.8278 4.05339C19.3435 3.4659 19.8539 2.87344 20.3561 2.27378C20.5849 2.00062 21.0285 1.47906 20.8332 1.1751C20.9569 0.775682 19.9532 1.00746 19.6211 1.11795C19.267 1.23585 18.9095 1.3456 18.5538 1.45938C18.4503 1.44858 18.3838 1.51811 18.3101 1.57304C16.4612 2.30087 14.8024 3.35626 13.2718 4.62723C12.2753 5.45507 11.379 6.38727 10.552 7.38963C9.80123 8.29801 9.24539 8.40173 8.2045 7.83943C8.1691 7.82027 8.1336 7.80239 8.09851 7.78281C6.94495 7.12663 5.71535 6.69398 4.41474 6.46262C3.31355 6.26577 2.20876 6.2428 1.10026 6.36927C0.560987 6.43066 0.288108 6.72477 0.333485 7.16537C0.367029 7.48986 0.577553 7.65887 0.844671 7.78799C1.89431 8.29346 3.49557 9.46294 4.50622 10.0494C5.40439 10.6032 5.99882 13.9133 7.17461 18.148C8.2329 21.9596 9.73991 27.8394 10.1694 29.6266C10.2557 29.9863 10.5958 29.8632 10.5993 29.8688C10.7375 30.1013 11.9179 24.3466 12.8793 19.2766C13.8093 14.3666 14.5122 10.1556 15.1742 9.27455Z" fill="current"/>
<path d="M8.87603 6.1759C10.5057 6.1759 11.8268 4.81707 11.8268 3.14087C11.8268 1.46466 10.5057 0.105835 8.87603 0.105835C7.24638 0.105835 5.92529 1.46466 5.92529 3.14087C5.92529 4.81707 7.24638 6.1759 8.87603 6.1759Z" fill="current"/>
</svg>
