<svg width="31" height="31" viewBox="0 0 31 31" fill="none" xmlns="http://www.w3.org/2000/svg">
<path fill-rule="evenodd" clip-rule="evenodd" d="M10.9792 11.625C10.9792 9.12825 13.0032 7.10419 15.5 7.10419C17.9968 7.10419 20.0209 9.12825 20.0209 11.625C20.0209 14.1218 17.9968 16.1459 15.5 16.1459C13.0032 16.1459 10.9792 14.1218 10.9792 11.625ZM15.5 9.68752C14.43 9.68752 13.5625 10.555 13.5625 11.625C13.5625 12.6951 14.43 13.5625 15.5 13.5625C16.5701 13.5625 17.4375 12.6951 17.4375 11.625C17.4375 10.555 16.5701 9.68752 15.5 9.68752Z" fill="current"/>
<path fill-rule="evenodd" clip-rule="evenodd" d="M1.29169 15.5C1.29169 7.65297 7.65297 1.29169 15.5 1.29169C23.3471 1.29169 29.7084 7.65297 29.7084 15.5C29.7084 19.4531 28.0939 23.0292 25.4885 25.6049C25.4501 25.6477 25.4088 25.688 25.365 25.7255C22.8094 28.1915 19.3319 29.7084 15.5 29.7084C11.7091 29.7084 8.26491 28.2237 5.71722 25.8041C5.61349 25.7292 5.52157 25.6394 5.44442 25.538C2.87838 22.9675 1.29169 19.4191 1.29169 15.5ZM7.8363 24.2414C9.88238 26.0367 12.5641 27.125 15.5 27.125C18.436 27.125 21.1177 26.0367 23.1638 24.2414C22.7197 21.8402 20.6135 20.0209 18.0833 20.0209H12.9167C10.3865 20.0209 8.28034 21.8402 7.8363 24.2414ZM25.1454 21.9912C23.9279 19.3053 21.2241 17.4375 18.0833 17.4375H12.9167C9.77592 17.4375 7.07208 19.3053 5.85465 21.9912C4.6047 20.1375 3.87502 17.904 3.87502 15.5C3.87502 9.07971 9.07971 3.87502 15.5 3.87502C21.9203 3.87502 27.125 9.07971 27.125 15.5C27.125 17.904 26.3953 20.1375 25.1454 21.9912Z" fill="current"/>
</svg>
