<svg width="35" height="35" viewBox="0 0 35 35" fill="none" xmlns="http://www.w3.org/2000/svg">
<circle cx="17.5" cy="17.5" r="17.5" fill="current" fill-opacity="0.05"/>
<path fill-rule="evenodd" clip-rule="evenodd" d="M17.5 9.625C16.0503 9.625 14.875 10.8003 14.875 12.25C14.875 13.6997 16.0503 14.875 17.5 14.875C18.9497 14.875 20.125 13.6997 20.125 12.25C20.125 10.8003 18.9497 9.625 17.5 9.625ZM13.125 12.25C13.125 9.83375 15.0838 7.875 17.5 7.875C19.9162 7.875 21.875 9.83375 21.875 12.25C21.875 14.6662 19.9162 16.625 17.5 16.625C15.0838 16.625 13.125 14.6662 13.125 12.25ZM8.75 26.25C8.75 21.4175 12.6675 17.5 17.5 17.5C22.3325 17.5 26.25 21.4175 26.25 26.25C26.25 26.7332 25.8582 27.125 25.375 27.125C24.8918 27.125 24.5 26.7332 24.5 26.25C24.5 22.384 21.366 19.25 17.5 19.25C13.634 19.25 10.5 22.384 10.5 26.25C10.5 26.7332 10.1082 27.125 9.625 27.125C9.14175 27.125 8.75 26.7332 8.75 26.25Z" fill="current"/>
</svg>
