<svg width="40" height="40" viewBox="0 0 40 40" fill="current" xmlns="http://www.w3.org/2000/svg">
<circle cx="20" cy="20" r="19" fill="current" fill-opacity="0.05" stroke="current" stroke-width="2"/>
<path fill-rule="evenodd" clip-rule="evenodd" d="M20 11C18.3431 11 17 12.3431 17 14C17 15.6569 18.3431 17 20 17C21.6569 17 23 15.6569 23 14C23 12.3431 21.6569 11 20 11ZM15 14C15 11.2386 17.2386 9 20 9C22.7614 9 25 11.2386 25 14C25 16.7614 22.7614 19 20 19C17.2386 19 15 16.7614 15 14ZM10 30C10 24.4772 14.4772 20 20 20C25.5228 20 30 24.4772 30 30C30 30.5523 29.5523 31 29 31C28.4477 31 28 30.5523 28 30C28 25.5817 24.4183 22 20 22C15.5817 22 12 25.5817 12 30C12 30.5523 11.5523 31 11 31C10.4477 31 10 30.5523 10 30Z" fill="current"/>
</svg>
