<svg width="26" height="26" viewBox="0 0 26 26" fill="none" xmlns="http://www.w3.org/2000/svg">
<path d="M24.375 6.5H21.0437C20.6375 4.63125 19.0125 3.25 17.0625 3.25C15.1125 3.25 13.4875 4.63125 13.0813 6.5H1.625V8.125H13.0813C13.4875 9.99375 15.1125 11.375 17.0625 11.375C19.0125 11.375 20.6375 9.99375 21.0437 8.125H24.375V6.5ZM17.0625 9.75C15.6812 9.75 14.625 8.69375 14.625 7.3125C14.625 5.93125 15.6812 4.875 17.0625 4.875C18.4438 4.875 19.5 5.93125 19.5 7.3125C19.5 8.69375 18.4438 9.75 17.0625 9.75Z" fill="#EFF0F7"/>
<path d="M1.625 19.5H4.95625C5.3625 21.3687 6.9875 22.75 8.9375 22.75C10.8875 22.75 12.5125 21.3687 12.9187 19.5H24.375V17.875H12.9187C12.5125 16.0063 10.8875 14.625 8.9375 14.625C6.9875 14.625 5.3625 16.0063 4.95625 17.875H1.625V19.5ZM8.9375 16.25C10.3188 16.25 11.375 17.3062 11.375 18.6875C11.375 20.0688 10.3188 21.125 8.9375 21.125C7.55625 21.125 6.5 20.0688 6.5 18.6875C6.5 17.3062 7.55625 16.25 8.9375 16.25Z" fill="#EFF0F7"/>
</svg>
