<svg width="65" height="65" viewBox="0 0 65 65" fill="current" xmlns="http://www.w3.org/2000/svg">
<path d="M32.1344 12.22L32.5 12.1875C32.9754 12.1873 33.4358 12.3539 33.8011 12.6583C34.1663 12.9627 34.4132 13.3855 34.4987 13.8531L34.5312 14.2188V30.4688H50.7812C51.2567 30.4686 51.7171 30.6352 52.0823 30.9396C52.4475 31.2439 52.6944 31.6667 52.78 32.1344L52.8125 32.5C52.8127 32.9754 52.6461 33.4358 52.3417 33.8011C52.0373 34.1663 51.6145 34.4132 51.1469 34.4987L50.7812 34.5312H34.5312V50.7812C34.5314 51.2567 34.3648 51.7171 34.0604 52.0823C33.7561 52.4475 33.3333 52.6944 32.8656 52.78L32.5 52.8125C32.0246 52.8127 31.5642 52.6461 31.1989 52.3417C30.8337 52.0373 30.5868 51.6145 30.5012 51.1469L30.4688 50.7812V34.5312H14.2188C13.7433 34.5314 13.2829 34.3648 12.9177 34.0604C12.5525 33.7561 12.3056 33.3333 12.22 32.8656L12.1875 32.5C12.1873 32.0246 12.3539 31.5642 12.6583 31.1989C12.9627 30.8337 13.3855 30.5868 13.8531 30.5012L14.2188 30.4688H30.4688V14.2188C30.4686 13.7433 30.6352 13.2829 30.9396 12.9177C31.2439 12.5525 31.6667 12.3056 32.1344 12.22L32.5 12.1875L32.1344 12.22Z" fill="current"/>
</svg>
