<svg width="48" height="48" viewBox="0 0 48 48" fill="current" xmlns="http://www.w3.org/2000/svg">
<g clip-path="url(#clip0)">
<path d="M44.25 21.6562C43.752 21.6562 43.2723 21.735 42.8217 21.8796C41.8685 21.0383 40.806 20.3615 39.6676 19.8619C41.8229 18.2347 43.2188 15.6524 43.2188 12.75C43.2188 7.83909 39.2234 3.84375 34.3125 3.84375C29.4016 3.84375 25.4062 7.83909 25.4062 12.75C25.4062 15.1052 26.3256 17.2494 27.8237 18.8438H20.1763C21.6744 17.2494 22.5938 15.1052 22.5938 12.75C22.5938 7.83909 18.5984 3.84375 13.6875 3.84375C8.77659 3.84375 4.78125 7.83909 4.78125 12.75C4.78125 15.6524 6.17709 18.2347 8.33241 19.8618C7.19409 20.3615 6.13153 21.0382 5.17828 21.8795C4.72772 21.735 4.248 21.6562 3.75 21.6562C1.68225 21.6562 0 23.3385 0 25.4062V29.625C0 30.2716 0.436969 30.8148 1.03125 30.9791V42.75C1.03125 43.5266 1.66087 44.1562 2.4375 44.1562H45.5625C46.3391 44.1562 46.9688 43.5266 46.9688 42.75V30.9791C47.563 30.8148 48 30.2716 48 29.625V25.4062C48 23.3385 46.3177 21.6562 44.25 21.6562ZM45.1875 25.4062V28.2188H44.25C43.2161 28.2188 42.375 27.3776 42.375 26.3438C42.375 25.3099 43.2161 24.4688 44.25 24.4688C44.7669 24.4688 45.1875 24.8893 45.1875 25.4062ZM28.2188 12.75C28.2188 9.38991 30.9524 6.65625 34.3125 6.65625C37.6726 6.65625 40.4062 9.38991 40.4062 12.75C40.4062 16.1101 37.6726 18.8438 34.3125 18.8438C30.9524 18.8438 28.2188 16.1101 28.2188 12.75ZM13.6875 6.65625C17.0476 6.65625 19.7812 9.38991 19.7812 12.75C19.7812 16.1101 17.0476 18.8438 13.6875 18.8438C10.3274 18.8438 7.59375 16.1101 7.59375 12.75C7.59375 9.38991 10.3274 6.65625 13.6875 6.65625ZM2.8125 25.4062C2.8125 24.8893 3.23306 24.4688 3.75 24.4688C4.78387 24.4688 5.625 25.3099 5.625 26.3438C5.625 27.3776 4.78387 28.2188 3.75 28.2188H2.8125V25.4062ZM3.84375 31.0289C6.38522 30.9787 8.4375 28.897 8.4375 26.3438C8.4375 25.3115 8.10141 24.3566 7.53384 23.5814C9.15984 22.3321 11.1348 21.6562 13.2188 21.6562C18.3881 21.6562 22.5938 25.8619 22.5938 31.0312V41.3438H10.4062V35.25C10.4062 34.4734 9.77662 33.8438 9 33.8438C8.22338 33.8438 7.59375 34.4734 7.59375 35.25V41.3438H3.84375V31.0289ZM40.4062 41.3438V35.25C40.4062 34.4734 39.7766 33.8438 39 33.8438C38.2234 33.8438 37.5938 34.4734 37.5938 35.25V41.3438H25.4062V31.0312C25.4062 27.2656 23.6893 23.8936 20.9974 21.6562H34.7812C36.8652 21.6562 38.8402 22.3321 40.4662 23.5814C39.8986 24.3566 39.5625 25.3115 39.5625 26.3438C39.5625 28.897 41.6148 30.9786 44.1562 31.0289V41.3438H40.4062Z" fill="current"/>
</g>
<defs>
<clipPath id="clip0">
<rect width="48" height="48" fill="current"/>
</clipPath>
</defs>
</svg>
