<svg width="31" height="31" viewBox="0 0 31 31" fill="none" xmlns="http://www.w3.org/2000/svg">
<path d="M16.7917 19.375C16.7917 18.6617 16.2134 18.0834 15.5 18.0834C14.7867 18.0834 14.2084 18.6617 14.2084 19.375V23.25C14.2084 23.9634 14.7867 24.5417 15.5 24.5417C16.2134 24.5417 16.7917 23.9634 16.7917 23.25V19.375Z" fill="#EFF0F7"/>
<path fill-rule="evenodd" clip-rule="evenodd" d="M7.75004 9.04169V12.9167H5.16671C3.73997 12.9167 2.58337 14.0733 2.58337 15.5V27.125C2.58337 28.5518 3.73997 29.7084 5.16671 29.7084H25.8334C27.2601 29.7084 28.4167 28.5518 28.4167 27.125V15.5C28.4167 14.0733 27.2601 12.9167 25.8334 12.9167H23.25V9.04169C23.25 4.76147 19.7802 1.29169 15.5 1.29169C11.2199 1.29169 7.75004 4.76147 7.75004 9.04169ZM15.5 3.87502C12.6466 3.87502 10.3334 6.18822 10.3334 9.04169V12.9167H20.6667V9.04169C20.6667 6.18822 18.3535 3.87502 15.5 3.87502ZM5.16671 15.5H25.8334V27.125H5.16671V15.5Z" fill="#EFF0F7"/>
</svg>
