<svg width="48" height="48" viewBox="0 0 48 48" fill="current" xmlns="http://www.w3.org/2000/svg">
<g clip-path="url(#clip0)">
<path d="M47.8272 37.6729L45.0394 29.5594C46.3832 26.8124 47.0933 23.7572 47.0981 20.6833C47.1064 15.3383 45.0384 10.2845 41.2751 6.45293C37.5111 2.62061 32.4952 0.463324 27.1515 0.378668C21.6104 0.291105 16.402 2.3988 12.4863 6.31437C8.71062 10.09 6.61643 15.0674 6.55015 20.3865C2.82883 23.1883 0.632357 27.5566 0.639576 32.2224C0.643044 34.4059 1.13448 36.5763 2.0657 38.5389L0.145418 44.1272C-0.184676 45.0879 0.0564496 46.1309 0.774763 46.8492C1.28026 47.3548 1.94673 47.624 2.63214 47.624C2.92052 47.624 3.21227 47.5764 3.4968 47.4786L9.08515 45.5583C11.0478 46.4895 13.2182 46.9809 15.4017 46.9844C15.4095 46.9844 15.417 46.9844 15.4249 46.9844C20.1602 46.9842 24.5618 44.7311 27.3534 40.9186C30.2584 40.8421 33.1327 40.1389 35.7312 38.8677L43.8447 41.6557C44.1828 41.7718 44.5295 41.8284 44.8721 41.8284C45.6866 41.8284 46.4786 41.5086 47.0795 40.9076C47.933 40.054 48.2195 38.8146 47.8272 37.6729ZM15.4247 44.1273C15.4186 44.1273 15.4122 44.1273 15.4061 44.1273C13.4735 44.1244 11.5543 43.6479 9.85644 42.7496C9.50731 42.565 9.09744 42.5331 8.72412 42.6613L2.99383 44.6304L4.96286 38.9002C5.09112 38.5267 5.05924 38.1169 4.87455 37.7678C3.97624 36.0698 3.4998 34.1508 3.4968 32.2181C3.49202 29.1094 4.7013 26.163 6.81603 23.9567C7.50678 28.1675 9.51369 32.0479 12.6245 35.1034C15.7124 38.1363 19.5938 40.0673 23.7818 40.6987C21.5704 42.8783 18.5895 44.1273 15.4247 44.1273ZM45.059 38.8873C44.9777 38.9686 44.8813 38.9907 44.7729 38.9534L36.0872 35.9688C35.9363 35.9169 35.7794 35.8912 35.623 35.8912C35.3925 35.8912 35.1628 35.947 34.955 36.0571C32.475 37.369 29.6726 38.0648 26.8505 38.0691C26.8412 38.0691 26.8328 38.0691 26.8235 38.0691C17.3676 38.0691 9.557 30.3878 9.40719 20.9341C9.33172 16.173 11.1428 11.6984 14.5066 8.33459C17.8705 4.97074 22.3458 3.16033 27.1063 3.23533C36.569 3.38542 44.2556 11.2105 44.241 20.6788C44.2366 23.5008 43.5409 26.3033 42.229 28.7831C42.0443 29.1321 42.0125 29.542 42.1407 29.9154L45.1253 38.6012C45.1625 38.7099 45.1402 38.8062 45.059 38.8873Z" fill="current"/>
<path d="M35.3341 13.0793H18.3128C17.5238 13.0793 16.8843 13.7189 16.8843 14.5078C16.8843 15.2968 17.5239 15.9364 18.3128 15.9364H35.3341C36.1231 15.9364 36.7627 15.2968 36.7627 14.5078C36.7627 13.7189 36.1231 13.0793 35.3341 13.0793Z" fill="current"/>
<path d="M35.3341 18.9547H18.3128C17.5238 18.9547 16.8843 19.5944 16.8843 20.3833C16.8843 21.1722 17.5239 21.8118 18.3128 21.8118H35.3341C36.1231 21.8118 36.7627 21.1722 36.7627 20.3833C36.7627 19.5944 36.1231 18.9547 35.3341 18.9547Z" fill="current"/>
<path d="M28.7817 24.8299H18.3124C17.5234 24.8299 16.8838 25.4696 16.8838 26.2585C16.8838 27.0475 17.5234 27.6871 18.3124 27.6871H28.7816C29.5706 27.6871 30.2102 27.0474 30.2102 26.2585C30.2102 25.4696 29.5707 24.8299 28.7817 24.8299Z" fill="current"/>
</g>
<defs>
<clipPath id="clip0">
<rect width="48" height="48" fill="current"/>
</clipPath>
</defs>
</svg>
