<svg width="425" height="400" viewBox="0 0 425 400" fill="none" xmlns="http://www.w3.org/2000/svg">
<g clip-path="url(#clip0)">
<path d="M85.0276 322.809C85.1144 331.726 79.8525 334.892 73.3248 334.955C73.1732 334.957 73.0222 334.957 72.8721 334.955C72.5695 334.951 72.27 334.94 71.9735 334.922C66.078 334.562 61.4684 331.333 61.3877 323.04C61.3041 314.457 72.1488 303.518 72.9622 302.709L72.9636 302.709C72.9945 302.678 73.0103 302.662 73.0103 302.662C73.0103 302.662 84.9408 313.891 85.0276 322.809Z" fill="#E9760D"/>
<path d="M271.634 322.307C271.72 331.225 266.458 334.39 259.931 334.454C259.779 334.456 259.628 334.455 259.478 334.453C259.175 334.45 258.876 334.439 258.58 334.421C252.684 334.06 248.074 330.832 247.994 322.538C247.91 313.955 258.755 303.017 259.568 302.208L259.57 302.207C259.601 302.176 259.616 302.161 259.616 302.161C259.616 302.161 271.547 313.39 271.634 322.307Z" fill="#E9760D"/>
<path d="M424.742 333.813H0V334.815H424.742V333.813Z" fill="#3F3D56" fill-opacity="0.1"/>
<path d="M86.5493 166.389C132.415 166.389 169.597 129.141 169.597 83.1943C169.597 37.2474 132.415 0 86.5493 0C40.6835 0 3.50195 37.2474 3.50195 83.1943C3.50195 129.141 40.6835 166.389 86.5493 166.389Z" fill="#E9760D"/>
<path d="M187.607 259.606H187.607C207.509 259.606 226.597 267.527 240.67 281.625C254.743 295.723 262.65 314.844 262.65 334.782V334.782H145.083V302.206C145.083 290.908 149.563 280.072 157.538 272.083C165.512 264.094 176.329 259.606 187.607 259.606Z" fill="#3F3D56"/>
<path d="M350.65 160.404C350.65 160.404 354.073 204.987 349.281 206.359C344.488 207.731 327.371 218.019 299.984 215.275C299.984 215.275 273.282 229.679 277.39 215.961C281.498 202.243 299.984 205.673 299.984 205.673C299.984 205.673 332.848 198.814 334.218 194.013C335.587 189.212 330.11 169.321 332.164 168.635C334.218 167.949 350.65 160.404 350.65 160.404Z" fill="#A0616A"/>
<path d="M309.639 238.135C309.639 238.135 312.308 302.543 316.416 312.145C319.838 320.144 321.834 346.226 322.406 354.716C322.521 356.419 322.578 357.414 322.578 357.414C322.578 357.414 333.533 357.414 334.217 354.67C334.902 351.927 336.956 321.748 334.217 312.145C331.479 302.543 337.71 236.077 337.71 236.077L309.639 238.135Z" fill="#2F2E41"/>
<path d="M325.317 353.985C325.317 353.985 318.47 356.042 317.101 358.786C315.732 361.529 293.138 366.331 299.984 369.76C306.831 373.189 327.371 367.016 327.371 367.016C327.371 367.016 338.326 366.331 337.641 362.215C336.957 358.1 334.463 353.029 334.463 353.029L325.317 353.985Z" fill="#2F2E41"/>
<path d="M344.488 361.369C344.488 361.369 337.641 363.427 336.272 366.17C334.902 368.914 312.308 373.715 319.155 377.145C326.001 380.574 346.542 374.401 346.542 374.401C346.542 374.401 357.496 373.715 356.812 369.6C356.127 365.484 353.634 360.414 353.634 360.414L344.488 361.369Z" fill="#2F2E41"/>
<path d="M315.731 236.538L325.317 252.999L341.314 310.232C341.314 310.232 339.695 362.741 341.749 362.741C343.803 362.741 354.758 366.17 355.443 362.741C356.021 359.844 363.689 332.094 359.867 313.623C357.381 301.95 355.781 290.104 355.083 278.188L353.389 246.14C353.389 246.14 360.235 233.794 352.704 231.737C345.172 229.679 315.731 236.538 315.731 236.538Z" fill="#2F2E41"/>
<path d="M324.632 130.911C333.708 130.911 341.065 123.541 341.065 114.45C341.065 105.359 333.708 97.9887 324.632 97.9887C315.557 97.9887 308.2 105.359 308.2 114.45C308.2 123.541 315.557 130.911 324.632 130.911Z" fill="#A0616A"/>
<path d="M322.578 125.424C322.578 125.424 325.317 147.373 324.632 148.744C323.947 150.116 341.064 133.655 341.064 133.655C341.064 133.655 334.902 124.052 336.272 119.251L322.578 125.424Z" fill="#A0616A"/>
<path d="M360.92 147.373C360.92 147.373 341.749 133.655 341.065 130.911L326.686 143.257L324.243 140.344C324.243 140.344 312.993 151.488 312.993 156.289C312.993 161.09 312.308 175.494 314.362 179.609C316.416 183.725 308.2 235.852 308.2 235.852C308.2 235.852 315.047 242.025 315.732 242.711C316.416 243.397 343.803 238.595 343.803 238.595C343.803 238.595 357.497 237.224 357.497 235.166C357.497 233.108 353.389 202.243 354.758 194.013C356.127 185.782 360.92 147.373 360.92 147.373Z" fill="#575A89"/>
<path d="M365.028 166.577C365.028 166.577 368.451 211.16 363.658 212.532C358.866 213.904 341.749 224.192 314.362 221.448C314.362 221.448 287.66 235.852 291.768 222.134C295.876 208.416 314.362 211.846 314.362 211.846C314.362 211.846 347.226 204.987 348.596 200.186C349.965 195.385 344.487 175.494 346.542 174.808C348.596 174.122 365.028 166.577 365.028 166.577Z" fill="#A0616A"/>
<path d="M317.613 106.227C319.859 105.426 322.337 105.015 324.628 105.679C327.869 106.618 330.114 109.464 332.535 111.819C334.957 114.173 338.352 116.259 341.54 115.152C341.348 113.768 341.711 112.364 342.549 111.246C342.965 110.83 343.273 110.317 343.444 109.753C343.581 108.872 342.84 108.111 342.619 107.247C342.23 105.733 343.296 103.66 341.985 102.812C341.639 102.588 341.201 102.537 340.863 102.3C339.538 101.372 341.01 99.0646 340.133 97.7034C339.871 97.3519 339.53 97.067 339.138 96.8714C332.785 93.1577 325.015 93.1475 317.66 93.2411C316.636 93.2541 315.21 93.7635 315.499 94.7477C314.109 93.7482 312.289 95.1517 311.168 96.4472L308.875 99.0988C307.798 100.252 306.857 101.526 306.073 102.896C305.372 104.239 305.217 106.302 306.611 106.887C305.575 106.452 304.317 112.602 309.096 111.59C311.872 111.003 314.594 107.303 317.613 106.227Z" fill="#2F2E41"/>
<path d="M349.965 148.744L360.92 147.373C360.92 147.373 371.875 168.635 365.713 172.064C359.551 175.494 343.803 178.237 343.803 176.866C343.803 175.494 349.965 148.744 349.965 148.744Z" fill="#575A89"/>
<path d="M199.826 153.41C199.826 153.41 203.094 164.166 201.227 167.44C199.359 170.714 204.495 177.729 212.898 174.455C221.301 171.182 221.768 167.44 221.768 167.44C221.768 167.44 218.5 162.296 217.566 151.539L199.826 153.41Z" fill="#FFB9B9"/>
<path d="M157.11 258.87C157.11 258.87 140.304 267.288 147.773 278.513C152.115 285.037 160.4 297.723 166.577 307.204C171.747 315.139 175.712 323.798 178.342 332.9L179.519 336.972L184.187 342.584L193.991 331.36C193.991 331.36 179.519 304.702 179.519 299.558C179.519 294.414 167.848 278.045 167.848 278.045L179.519 270.562C179.519 270.562 166.447 255.597 157.11 258.87Z" fill="#FFB9B9"/>
<path d="M211.731 287.866C211.731 287.866 212.198 300.961 212.665 306.105C213.05 310.349 209.305 322.233 210.603 335.454C211.396 344.007 211.301 352.619 210.32 361.153L208.463 378.127L222.469 379.53L227.137 341.181C227.137 341.181 229.938 314.056 228.538 305.17L229.005 286.463C229.005 286.463 218.734 282.722 211.731 287.866Z" fill="#FFB9B9"/>
<path d="M186.755 233.382C186.755 233.382 154.075 254.427 153.608 260.975C153.608 260.975 172.282 259.104 172.749 275.473C172.749 275.473 183.954 271.264 186.755 270.328C189.556 269.393 204.495 259.572 204.495 259.572C204.495 259.572 210.564 264.249 210.564 271.731C210.564 279.214 210.097 292.309 210.564 293.244C211.031 294.18 221.768 280.617 230.638 292.309L236.707 260.04C236.707 260.04 238.575 240.397 234.84 238.994L208.696 229.173L186.755 233.382Z" fill="#2F2E41"/>
<path d="M206.596 159.256C214.331 159.256 220.601 152.974 220.601 145.226C220.601 137.477 214.331 131.195 206.596 131.195C198.861 131.195 192.59 137.477 192.59 145.226C192.59 152.974 198.861 159.256 206.596 159.256Z" fill="#FFB9B9"/>
<path d="M203.094 169.778C203.094 169.778 218.892 173.958 221.03 166.022C221.03 166.022 240.442 169.778 243.71 182.406C246.978 195.033 235.774 225.432 235.774 226.367C235.774 227.302 245.111 232.914 240.909 235.72C236.707 238.526 232.972 235.253 234.84 238.994C236.707 242.736 239.975 243.671 237.174 244.606C234.373 245.542 217.566 231.044 204.495 234.785C191.423 238.526 184.887 235.72 184.887 235.72L179.026 184.972C178.797 183.028 179.058 181.057 179.785 179.24C180.511 177.423 181.681 175.817 183.186 174.569C186.112 172.156 189.994 169.55 193.757 168.843C201.227 167.44 201.537 166.672 201.537 166.672L203.094 169.778Z" fill="#D0CDE1"/>
<path d="M188.155 251.621C188.155 251.621 192.357 275.473 197.959 272.199C203.561 268.925 196.559 251.621 196.559 251.621H188.155Z" fill="#FFB9B9"/>
<path d="M207.657 254.708C207.657 254.708 200.377 277.804 206.856 277.495C213.334 277.186 215.109 258.599 215.109 258.599L207.657 254.708Z" fill="#FFB9B9"/>
<path d="M181.853 336.036C181.853 336.036 178.585 332.295 176.717 337.439C174.85 342.584 169.715 349.131 169.715 349.131C169.715 349.131 158.51 361.759 166.447 362.226C174.383 362.694 185.587 351.002 185.587 351.002L198.659 338.842C198.659 338.842 194.327 328.273 192.291 328.179C190.256 328.086 190.723 340.713 181.853 336.036Z" fill="#2F2E41"/>
<path d="M212.198 374.853C212.198 374.853 208.908 375.816 209.153 371.827C209.153 371.827 197.259 378.127 200.527 382.804C203.795 387.481 207.53 392.157 207.53 392.157C207.53 392.157 224.803 401.978 226.204 399.64C227.604 397.302 227.604 392.625 226.671 390.754C225.737 388.884 221.068 385.61 222.469 382.804C223.87 379.998 222.002 372.515 219.668 372.515C217.334 372.515 212.198 374.853 212.198 374.853Z" fill="#2F2E41"/>
<path d="M194.374 133.337C194.374 133.337 198.879 123.558 207.514 125.815C216.15 128.072 221.03 131.457 221.406 134.842C221.781 138.227 221.218 143.304 221.218 143.304C221.218 143.304 220.28 136.346 214.272 137.851C208.265 139.355 198.879 138.227 198.879 138.227L197.377 151.767C197.377 151.767 195.688 149.322 193.81 150.826C191.933 152.331 188.366 136.346 194.374 133.337Z" fill="#2F2E41"/>
<path d="M235.774 181.938C235.774 181.938 224.569 212.337 225.503 216.078C226.437 219.82 225.503 220.287 224.102 221.223C222.702 222.158 218.967 231.979 218.967 231.979C218.967 231.979 216.633 237.591 214.766 238.994C212.898 240.397 212.898 244.139 212.898 244.139C212.898 244.139 208.23 248.815 209.163 249.751C210.097 250.686 210.097 252.089 208.23 253.492C206.362 254.895 204.495 256.766 205.429 257.234C206.362 257.701 212.898 262.846 214.765 262.378C216.633 261.91 213.832 260.04 216.166 259.104C218.5 258.169 219.901 256.766 218.967 256.298C218.033 255.83 215.232 255.83 218.033 254.895C220.835 253.96 230.638 247.88 233.906 240.397C237.174 232.914 252.832 187.642 243.369 181.282C243.369 181.282 239.508 176.326 235.774 181.938Z" fill="#D0CDE1"/>
<path d="M183.954 176.794L183.764 176.873C182.001 177.609 180.443 178.766 179.226 180.241C178.009 181.717 177.169 183.467 176.78 185.341C175.76 190.229 174.757 197.299 175.55 203.919C176.951 215.61 177.885 220.755 179.752 224.496C181.62 228.238 182.086 226.835 181.619 229.641C181.153 232.447 178.818 230.108 181.153 233.85C183.487 237.591 184.887 236.656 183.954 238.526C183.02 240.397 181.62 240.397 183.487 242.736C185.354 245.074 185.354 246.009 185.821 246.945C186.288 247.88 187.689 254.895 187.689 254.895C187.689 254.895 195.158 252.557 199.36 253.492C199.36 253.492 195.625 246.945 196.559 245.542C197.492 244.139 198.893 243.671 197.492 242.268C196.092 240.865 193.758 241.333 196.092 239.93C198.426 238.526 194.224 224.029 194.224 224.029L183.954 176.794Z" fill="#D0CDE1"/>
<path d="M94.5541 333.78H77.5444L85.2989 70.665L94.5541 333.78Z" fill="#3F3D56"/>
<path d="M86.7991 120.532L105.06 95.2225L86.549 126.796L84.5479 123.288L86.7991 120.532Z" fill="#3F3D56"/>
<path d="M84.7985 146.091L66.5381 120.782L85.0486 152.356L87.0498 148.848L84.7985 146.091Z" fill="#3F3D56"/>
<path d="M94.1675 196.92L85.9355 201.681L88.437 206.021L96.6689 201.26L94.1675 196.92Z" fill="#3F3D56"/>
</g>
<defs>
<clipPath id="clip0">
<rect width="424.742" height="400" fill="white"/>
</clipPath>
</defs>
</svg>
