<svg width="20" height="20" viewBox="0 0 20 20" fill="none" xmlns="http://www.w3.org/2000/svg">
<path d="M17.1188 8.6375H10.1313V11.5312H14.1563C13.7813 13.375 12.2125 14.4312 10.1313 14.4312C8.95603 14.4312 7.82892 13.9644 6.9979 13.1334C6.16688 12.3023 5.70002 11.1752 5.70002 10C5.70002 8.82476 6.16688 7.69765 6.9979 6.86663C7.82892 6.03561 8.95603 5.56875 10.1313 5.56875C11.1383 5.57016 12.114 5.91895 12.8938 6.55625L15.075 4.375C14.1643 3.57187 13.0723 3.00185 11.8927 2.71392C10.7131 2.426 9.48125 2.42878 8.30296 2.72202C7.12468 3.01526 6.03521 3.5902 5.12817 4.39743C4.22113 5.20466 3.52365 6.22005 3.09564 7.35634C2.66764 8.49263 2.52192 9.71584 2.67101 10.9209C2.82009 12.1259 3.25952 13.2767 3.95154 14.2745C4.64356 15.2722 5.56748 16.087 6.64389 16.6488C7.72031 17.2107 8.91705 17.5028 10.1313 17.5C13.8813 17.5 17.2875 14.775 17.2875 10C17.2838 9.54085 17.2272 9.08367 17.1188 8.6375V8.6375Z" fill="#1F1F24"/>
</svg>
