<svg width="20" height="20" viewBox="0 0 20 20" fill="current" xmlns="http://www.w3.org/2000/svg">
<path d="M11.604 2.08582C11.9307 2.08579 12.2517 2.17113 12.5353 2.33338C12.8189 2.49562 13.0551 2.72915 13.2207 3.01082L13.899 4.16665H15.6248C15.9805 4.16665 16.3327 4.2367 16.6613 4.37281C16.9899 4.50891 17.2884 4.70841 17.5399 4.9599C17.7914 5.21139 17.9909 5.50996 18.127 5.83855C18.2631 6.16714 18.3332 6.51932 18.3332 6.87498V14.7916C18.3332 15.1473 18.2631 15.4995 18.127 15.8281C17.9909 16.1567 17.7914 16.4552 17.5399 16.7067C17.2884 16.9582 16.9899 17.1577 16.6613 17.2938C16.3327 17.4299 15.9805 17.5 15.6248 17.5H4.37484C3.65654 17.5 2.96767 17.2146 2.45976 16.7067C1.95185 16.1988 1.6665 15.5099 1.6665 14.7916V6.87498C1.6665 6.15669 1.95185 5.46781 2.45976 4.9599C2.96767 4.45199 3.65654 4.16665 4.37484 4.16665H6.10817L6.83734 2.97998C7.00499 2.70683 7.23987 2.48122 7.51954 2.32468C7.79921 2.16814 8.11434 2.0859 8.43484 2.08582H11.604ZM11.604 3.33582H8.43484C8.34364 3.33589 8.25357 3.35592 8.17093 3.3945C8.0883 3.43308 8.01511 3.48928 7.9565 3.55915L7.90234 3.63415L6.9915 5.11748C6.93565 5.20858 6.85737 5.28384 6.76415 5.33607C6.67092 5.3883 6.56586 5.41576 6.459 5.41582H4.37567C4.18402 5.41571 3.99423 5.45337 3.81714 5.52666C3.64006 5.59996 3.47916 5.70743 3.34364 5.84295C3.20812 5.97847 3.10064 6.13937 3.02735 6.31645C2.95406 6.49354 2.91639 6.68333 2.9165 6.87498V14.7916C2.9165 15.5966 3.56984 16.25 4.37484 16.25H15.6248C16.0116 16.25 16.3825 16.0963 16.656 15.8228C16.9295 15.5494 17.0832 15.1784 17.0832 14.7916V6.87498C17.0832 6.48821 16.9295 6.11728 16.656 5.84378C16.3825 5.57029 16.0116 5.41665 15.6248 5.41665H13.5415C13.4326 5.41671 13.3255 5.38828 13.2309 5.3342C13.1363 5.28011 13.0575 5.20224 13.0023 5.10832L12.1423 3.64415C12.0872 3.55034 12.0085 3.47255 11.9141 3.41847C11.8197 3.3644 11.7128 3.3359 11.604 3.33582ZM9.99984 6.66665C10.9944 6.66665 11.9482 7.06174 12.6515 7.765C13.3547 8.46826 13.7498 9.42209 13.7498 10.4166C13.7498 11.4112 13.3547 12.365 12.6515 13.0683C11.9482 13.7716 10.9944 14.1666 9.99984 14.1666C9.00528 14.1666 8.05145 13.7716 7.34819 13.0683C6.64493 12.365 6.24984 11.4112 6.24984 10.4166C6.24984 9.42209 6.64493 8.46826 7.34819 7.765C8.05145 7.06174 9.00528 6.66665 9.99984 6.66665ZM9.99984 7.91665C9.67153 7.91665 9.34644 7.98131 9.04313 8.10695C8.73982 8.23259 8.46422 8.41673 8.23207 8.64888C7.99992 8.88103 7.81578 9.15663 7.69014 9.45994C7.5645 9.76325 7.49984 10.0883 7.49984 10.4166C7.49984 10.745 7.5645 11.07 7.69014 11.3734C7.81578 11.6767 7.99992 11.9523 8.23207 12.1844C8.46422 12.4166 8.73982 12.6007 9.04313 12.7263C9.34644 12.852 9.67153 12.9166 9.99984 12.9166C10.6629 12.9166 11.2988 12.6533 11.7676 12.1844C12.2364 11.7156 12.4998 11.0797 12.4998 10.4166C12.4998 9.75361 12.2364 9.11772 11.7676 8.64888C11.2988 8.18004 10.6629 7.91665 9.99984 7.91665Z" fill="current"/>
</svg>
