<svg width="32" height="32" viewBox="0 0 32 32" fill="none" xmlns="http://www.w3.org/2000/svg">
<path d="M22.4058 11.034C23.2011 11.034 23.8458 10.3893 23.8458 9.59399C23.8458 8.7987 23.2011 8.15399 22.4058 8.15399C21.6105 8.15399 20.9658 8.7987 20.9658 9.59399C20.9658 10.3893 21.6105 11.034 22.4058 11.034Z" fill="#C32AA3"/>
<path d="M15.9999 9.83801C14.7812 9.83801 13.5898 10.1994 12.5765 10.8765C11.5631 11.5536 10.7733 12.516 10.3069 13.6419C9.84056 14.7679 9.71853 16.0068 9.95629 17.2022C10.1941 18.3975 10.7809 19.4954 11.6427 20.3572C12.5045 21.219 13.6024 21.8058 14.7977 22.0436C15.9931 22.2814 17.232 22.1593 18.358 21.693C19.4839 21.2266 20.4463 20.4368 21.1234 19.4234C21.8005 18.4101 22.1619 17.2187 22.1619 16C22.1619 14.3657 21.5127 12.7984 20.3571 11.6428C19.2015 10.4872 17.6342 9.83801 15.9999 9.83801ZM15.9999 20C15.2088 20 14.4354 19.7654 13.7776 19.3259C13.1198 18.8864 12.6071 18.2617 12.3044 17.5307C12.0016 16.7998 11.9224 15.9956 12.0768 15.2197C12.2311 14.4437 12.6121 13.731 13.1715 13.1716C13.7309 12.6122 14.4436 12.2312 15.2195 12.0769C15.9955 11.9225 16.7997 12.0017 17.5306 12.3045C18.2615 12.6072 18.8862 13.1199 19.3258 13.7777C19.7653 14.4355 19.9999 15.2089 19.9999 16C19.9999 17.0609 19.5785 18.0783 18.8283 18.8284C18.0782 19.5786 17.0608 20 15.9999 20Z" fill="#C32AA3"/>
<path d="M16 6.162C19.204 6.162 19.584 6.174 20.849 6.232C21.6098 6.24103 22.3635 6.38073 23.077 6.645C23.5947 6.84469 24.0648 7.15055 24.4571 7.54288C24.8495 7.93521 25.1553 8.40534 25.355 8.923C25.6193 9.63653 25.759 10.3902 25.768 11.151C25.826 12.416 25.838 12.796 25.838 16.001C25.838 19.206 25.826 19.584 25.768 20.849C25.759 21.6098 25.6193 22.3635 25.355 23.077C25.1553 23.5947 24.8495 24.0648 24.4571 24.4571C24.0648 24.8495 23.5947 25.1553 23.077 25.355C22.3635 25.6193 21.6098 25.759 20.849 25.768C19.584 25.826 19.204 25.838 16 25.838C12.796 25.838 12.416 25.826 11.151 25.768C10.3902 25.759 9.63653 25.6193 8.923 25.355C8.40534 25.1553 7.93521 24.8495 7.54288 24.4571C7.15055 24.0648 6.84469 23.5947 6.645 23.077C6.38073 22.3635 6.24103 21.6098 6.232 20.849C6.174 19.584 6.162 19.204 6.162 16C6.162 12.796 6.174 12.416 6.232 11.151C6.24103 10.3902 6.38073 9.63653 6.645 8.923C6.84469 8.40534 7.15055 7.93521 7.54288 7.54288C7.93521 7.15055 8.40534 6.84469 8.923 6.645C9.63653 6.38073 10.3902 6.24103 11.151 6.232C12.416 6.174 12.796 6.162 16 6.162ZM16 4C12.741 4 12.332 4.014 11.052 4.072C10.0568 4.0921 9.07216 4.28077 8.14 4.63C7.34272 4.9383 6.61866 5.40978 6.01422 6.01422C5.40978 6.61866 4.9383 7.34272 4.63 8.14C4.28066 9.07247 4.09198 10.0574 4.072 11.053C4.014 12.333 4 12.74 4 16C4 19.26 4.014 19.668 4.072 20.948C4.0921 21.9432 4.28077 22.9278 4.63 23.86C4.9383 24.6573 5.40978 25.3813 6.01422 25.9858C6.61866 26.5902 7.34272 27.0617 8.14 27.37C9.07247 27.7193 10.0574 27.908 11.053 27.928C12.333 27.986 12.741 28 16 28C19.259 28 19.668 27.986 20.948 27.928C21.9436 27.908 22.9285 27.7193 23.861 27.37C24.6583 27.0617 25.3823 26.5902 25.9868 25.9858C26.5912 25.3813 27.0627 24.6573 27.371 23.86C27.72 22.9275 27.9083 21.9425 27.928 20.947C27.986 19.667 28 19.26 28 16C28 12.74 27.986 12.332 27.928 11.052C27.9079 10.0568 27.7192 9.07216 27.37 8.14C27.0617 7.34272 26.5902 6.61866 25.9858 6.01422C25.3813 5.40978 24.6573 4.9383 23.86 4.63C22.9275 4.281 21.9425 4.09266 20.947 4.073C19.667 4.013 19.26 4 16 4Z" fill="#C32AA3"/>
</svg>
