<svg width="32" height="32" viewBox="0 0 32 32" fill="none" xmlns="http://www.w3.org/2000/svg">
<path d="M26.21 3.99997H5.79C5.32472 3.99717 4.87685 4.17667 4.54228 4.50002C4.20772 4.82337 4.01306 5.26487 4 5.72997V26.2C4.0105 26.6659 4.20436 27.1089 4.53948 27.4328C4.87461 27.7567 5.32396 27.9354 5.79 27.93H26.21C26.676 27.9354 27.1254 27.7567 27.4605 27.4328C27.7956 27.1089 27.9895 26.6659 28 26.2V5.72997C27.9869 5.26487 27.7923 4.82337 27.4577 4.50002C27.1232 4.17667 26.6753 3.99717 26.21 3.99997ZM11.11 24.41H7.59V13H11.11V24.41ZM9.39 11.41C8.84956 11.4101 8.33048 11.1989 7.94369 10.8215C7.55689 10.444 7.33305 9.93026 7.32 9.38997C7.31021 9.1155 7.35706 8.84196 7.45762 8.58638C7.55819 8.33081 7.71031 8.09869 7.90452 7.90449C8.09872 7.71028 8.33084 7.55816 8.58641 7.4576C8.84198 7.35703 9.11553 7.31018 9.39 7.31997C9.91284 7.35638 10.4024 7.58976 10.7599 7.97301C11.1174 8.35627 11.3162 8.86086 11.3162 9.38497C11.3162 9.90908 11.1174 10.4137 10.7599 10.7969C10.4024 11.1802 9.91284 11.4136 9.39 11.45V11.41ZM24.48 24.34H21V18.76C21 17.43 21 15.7 19.14 15.7C17.28 15.7 17 17.16 17 18.63V24.28H13.44V13H16.76V14.5H16.83C17.1703 13.909 17.6665 13.4229 18.2643 13.0949C18.8622 12.7669 19.5387 12.6095 20.22 12.64C23.81 12.64 24.48 15.04 24.48 18.09V24.34Z" fill="#0E76A8"/>
</svg>
