<svg width="32" height="32" viewBox="0 0 32 32" fill="none" xmlns="http://www.w3.org/2000/svg">
<path d="M11.92 24.94C13.6091 24.9506 15.2836 24.6258 16.8462 23.9843C18.4088 23.3428 19.8285 22.3974 21.0229 21.2029C22.2174 20.0085 23.1627 18.5888 23.8043 17.0262C24.4458 15.4636 24.7706 13.7891 24.76 12.1V11.51C25.6356 10.8685 26.3935 10.0802 27 9.18001C26.1755 9.5406 25.3031 9.77975 24.41 9.89001C25.3569 9.32579 26.0674 8.43767 26.41 7.39C25.5275 7.91945 24.5598 8.29164 23.55 8.49C22.8699 7.76537 21.97 7.28506 20.9895 7.12339C20.0089 6.96172 19.0024 7.1277 18.1257 7.59566C17.249 8.06361 16.551 8.80745 16.1396 9.71208C15.7282 10.6167 15.6264 11.6317 15.85 12.6C14.056 12.5119 12.3007 12.047 10.6984 11.2355C9.096 10.424 7.68254 9.28409 6.55 7.89C5.97892 8.88118 5.80583 10.0523 6.06576 11.1663C6.32569 12.2803 6.99923 13.2539 7.95 13.89C7.24861 13.863 6.56345 13.6711 5.95 13.33V13.38C5.94377 14.4158 6.29272 15.4225 6.9387 16.2323C7.58469 17.042 8.48867 17.6059 9.5 17.83C8.84764 18.0055 8.16429 18.0328 7.5 17.91C7.79278 18.7934 8.35168 19.5646 9.10005 20.1178C9.84841 20.671 10.7496 20.9792 11.68 21C10.0892 22.2805 8.11209 22.9854 6.07 23C5.71195 22.9896 5.35475 22.9596 5 22.91C7.06696 24.2269 9.4692 24.9212 11.92 24.91" fill="#1DA1F2"/>
</svg>
