<svg width="32" height="32" viewBox="0 0 32 32" fill="none" xmlns="http://www.w3.org/2000/svg">
<path d="M29.4098 9.26001C29.2504 8.66805 28.9384 8.12832 28.5049 7.69485C28.0715 7.26137 27.5317 6.94935 26.9398 6.79001C24.7598 6.20001 15.9998 6.20001 15.9998 6.20001C15.9998 6.20001 7.23978 6.20001 5.05978 6.79001C4.46782 6.94935 3.92809 7.26137 3.49461 7.69485C3.06113 8.12832 2.74911 8.66805 2.58978 9.26001C2.18272 11.4833 1.98519 13.7398 1.99978 16C1.98519 18.2602 2.18272 20.5167 2.58978 22.74C2.74911 23.332 3.06113 23.8717 3.49461 24.3052C3.92809 24.7387 4.46782 25.0507 5.05978 25.21C7.23978 25.8 15.9998 25.8 15.9998 25.8C15.9998 25.8 24.7598 25.8 26.9398 25.21C27.5317 25.0507 28.0715 24.7387 28.5049 24.3052C28.9384 23.8717 29.2504 23.332 29.4098 22.74C29.8168 20.5167 30.0144 18.2602 29.9998 16C30.0144 13.7398 29.8168 11.4833 29.4098 9.26001ZM13.1998 20.2V11.8L20.4698 16L13.1998 20.2Z" fill="#FF0000"/>
</svg>
