<svg width="31" height="31" viewBox="0 0 31 31" fill="none" xmlns="http://www.w3.org/2000/svg">
<path d="M26.4792 1.29169C28.1913 1.29169 29.5922 2.62408 29.7015 4.30853L29.7084 4.52085V21.3125C29.7084 23.0246 28.376 24.4255 26.6915 24.5348L26.4792 24.5417H25.8334V26.4792C25.8334 28.1913 24.501 29.5922 22.8165 29.7015L22.6042 29.7084H4.52085C2.73743 29.7084 1.29169 28.2626 1.29169 26.4792V8.39585C1.29169 6.61243 2.73743 5.16669 4.52085 5.16669H6.45835V4.52085C6.45835 2.80877 7.79073 1.40789 9.4752 1.29856L9.68752 1.29169H26.4792ZM22.6042 7.75002H4.52085C4.16417 7.75002 3.87502 8.03917 3.87502 8.39585V26.4792C3.87502 26.8359 4.16417 27.125 4.52085 27.125H22.6042C22.9609 27.125 23.25 26.8359 23.25 26.4792V8.39585C23.25 8.03917 22.9609 7.75002 22.6042 7.75002ZM15.3295 15.7886C16.7916 17.2507 16.8232 19.609 15.3756 21.0565L15.3579 21.0697L15.3304 21.0995L12.0404 24.0844C10.5928 25.5319 8.23452 25.5003 6.77248 24.0383C5.31168 22.5775 5.32376 20.0888 6.7886 18.6242L7.61059 17.8238L7.78344 17.6525C8.28782 17.148 9.10566 17.1479 9.61013 17.6523C10.1146 18.1567 10.1147 18.9745 9.61031 19.479L8.59917 20.4667C8.15536 20.9106 8.15122 21.7636 8.59917 22.2116C9.02449 22.6369 9.66742 22.6805 10.1357 22.3223L10.2588 22.2147L13.5548 19.2213L13.6467 19.1171C13.9422 18.723 13.933 18.1558 13.6094 17.7364L13.3954 17.4936C13.0014 16.9869 13.0372 16.2543 13.5028 15.7886C14.0073 15.2842 14.8251 15.2842 15.3295 15.7886ZM26.4792 3.87502H9.68752C9.37045 3.87502 9.10677 4.10347 9.05209 4.40476L9.04169 4.52085V5.16669H22.6042C24.3163 5.16669 25.7172 6.49909 25.8265 8.18353L25.8334 8.39585V21.9584H26.4792C26.7963 21.9584 27.0599 21.7299 27.1146 21.4286L27.125 21.3125V4.52085C27.125 4.20379 26.8966 3.94011 26.5953 3.88543L26.4792 3.87502ZM19.6815 10.4996C21.0851 11.9032 21.1704 14.1327 19.9171 15.5661L18.5199 17.0474C18.0301 17.5661 17.2126 17.5895 16.694 17.0997C16.2152 16.6476 16.1584 15.9163 16.5377 15.3985L16.6416 15.2738L17.901 13.9409C18.3285 13.5133 18.3188 12.7903 17.8548 12.3263C17.4295 11.901 16.7866 11.8574 16.3671 12.1682L16.2585 12.2617L13.0842 15.5676C13.0665 15.5942 13.0478 15.6203 13.0279 15.6458L12.9205 15.7675C12.6994 15.9886 12.59 16.291 12.6116 16.6106C12.627 16.839 12.7085 17.0592 12.8497 17.2473L12.9666 17.382C13.471 17.8865 13.471 18.7043 12.9666 19.2087C12.4622 19.7132 11.6444 19.7132 11.1399 19.2087C10.482 18.5508 10.0954 17.69 10.0341 16.7849C9.97373 15.8908 10.2345 15.01 10.7775 14.3015C10.8052 14.2512 10.8369 14.2017 10.8724 14.1541L10.9774 14.0303L14.4137 10.4535C15.8612 9.006 18.2195 9.03761 19.6815 10.4996Z" fill="current"/>
</svg>
