<svg width="40" height="40" viewBox="0 0 40 40" fill="current" xmlns="http://www.w3.org/2000/svg">
<path d="M24 4C25.0609 4 26.0783 4.42143 26.8284 5.17157C27.5786 5.92172 28 6.93913 28 8V28C28 29.0609 27.5786 30.0783 26.8284 30.8284C26.0783 31.5786 25.0609 32 24 32H12C10.9391 32 9.92172 31.5786 9.17157 30.8284C8.42143 30.0783 8 29.0609 8 28V8C8 6.93913 8.42143 5.92172 9.17157 5.17157C9.92172 4.42143 10.9391 4 12 4H24ZM26 8C26 7.46957 25.7893 6.96086 25.4142 6.58579C25.0391 6.21071 24.5304 6 24 6H12C11.4696 6 10.9609 6.21071 10.5858 6.58579C10.2107 6.96086 10 7.46957 10 8V28C10 28.5304 10.2107 29.0391 10.5858 29.4142C10.9609 29.7893 11.4696 30 12 30H24C24.5304 30 25.0391 29.7893 25.4142 29.4142C25.7893 29.0391 26 28.5304 26 28V8Z" fill="current"/>
<path d="M32 12C32 11.2979 31.8151 10.6081 31.4641 10.0001C31.113 9.39201 30.6081 8.88708 30 8.53601V29C30 30.3261 29.4732 31.5979 28.5355 32.5355C27.5979 33.4732 26.3261 34 25 34H12.536C12.8871 34.6081 13.392 35.113 14.0001 35.4641C14.6081 35.8152 15.2979 36 16 36H25C26.8565 36 28.637 35.2625 29.9497 33.9498C31.2625 32.637 32 30.8565 32 29V12Z" fill="current"/>
</svg>
