<svg width="36" height="36" viewBox="0 0 36 36" fill="current" xmlns="http://www.w3.org/2000/svg">
<path fill-rule="evenodd" clip-rule="evenodd" d="M24.6623 27.8212C25.304 27.1373 25.7148 26.2692 25.8368 25.3394L32.8343 28.4489C33.1768 28.6015 33.552 28.6661 33.9258 28.6368C34.2996 28.6075 34.6602 28.4853 34.9748 28.2811C35.2893 28.077 35.5479 27.7975 35.7269 27.4681C35.906 27.1386 35.9998 26.7696 36 26.3947V9.60516C35.9997 9.23048 35.9058 8.86182 35.7269 8.53262C35.5479 8.20343 35.2896 7.92413 34.9754 7.72008C34.6611 7.51602 34.3009 7.39367 33.9274 7.36413C33.5539 7.33459 33.1789 7.39879 32.8365 7.55091L25.8368 10.6604C25.6938 9.57836 25.1624 8.58515 24.3416 7.86575C23.5208 7.14635 22.4665 6.74978 21.375 6.74991H9.612L11.2185 8.99991H21.375C21.9717 8.99991 22.544 9.23697 22.966 9.65892C23.3879 10.0809 23.625 10.6532 23.625 11.2499V24.7499C23.6254 25.1607 23.5134 25.5638 23.301 25.9154L24.6623 27.8212ZM3.213 9.40491C2.91565 9.61204 2.67278 9.88799 2.5051 10.2092C2.33742 10.5305 2.2499 10.8875 2.25 11.2499V24.7499C2.25 25.3466 2.48705 25.9189 2.90901 26.3409C3.33097 26.7629 3.90326 26.9999 4.5 26.9999H15.7815L17.388 29.2499H4.5C3.30653 29.2499 2.16193 28.7758 1.31802 27.9319C0.474106 27.088 0 25.9434 0 24.7499V11.2499C0 9.73116 0.7515 8.38791 1.90575 7.57341L3.21075 9.40491H3.213ZM33.75 26.3924L25.875 22.8937V13.1062L33.75 9.60516V26.3947V26.3924ZM23.8343 34.4024L1.33425 2.90241L3.16575 1.59741L25.6657 33.0974L23.8343 34.4024Z" fill="current"/>
</svg>
