<svg width="48" height="48" viewBox="0 0 48 48" fill="none" xmlns="http://www.w3.org/2000/svg">
<path d="M24.1202 27.4534C23.4023 27.4588 22.7069 27.7045 22.145 28.1512C21.583 28.5979 21.1868 29.2199 21.0196 29.918C20.8523 30.6161 20.9237 31.3501 21.2222 32.003C21.5208 32.6558 22.0294 33.1899 22.6668 33.52V37.3334H25.3335V33.64C26.0219 33.3579 26.5912 32.8456 26.944 32.1906C27.2968 31.5356 27.4114 30.7784 27.2682 30.0483C27.1251 29.3182 26.733 28.6604 26.1588 28.1871C25.5847 27.7139 24.8642 27.4546 24.1202 27.4534Z" fill="#EFF0F7"/>
<path d="M34.6668 20V14.2933C34.7241 11.4025 33.6339 8.60672 31.6349 6.51772C29.6358 4.42872 26.8907 3.21662 24.0002 3.14667C21.1096 3.21662 18.3645 4.42872 16.3654 6.51772C14.3664 8.60672 13.2762 11.4025 13.3335 14.2933V20H9.3335V42.6667C9.3335 43.3739 9.61445 44.0522 10.1145 44.5523C10.6146 45.0524 11.2929 45.3333 12.0002 45.3333H36.0002C36.7074 45.3333 37.3857 45.0524 37.8858 44.5523C38.3859 44.0522 38.6668 43.3739 38.6668 42.6667V20H34.6668ZM16.0002 14.2933C15.9427 12.1097 16.7518 9.99198 18.2508 8.40304C19.7499 6.81409 21.8168 5.88304 24.0002 5.81333C26.1835 5.88304 28.2505 6.81409 29.7495 8.40304C31.2485 9.99198 32.0576 12.1097 32.0002 14.2933V20H16.0002V14.2933ZM12.0002 42.6667V22.6667H36.0002V42.6667H12.0002Z" fill="#EFF0F7"/>
</svg>
