<svg width="16" height="29" viewBox="0 0 16 29" fill="none" xmlns="http://www.w3.org/2000/svg">
<path d="M8 8C7.46957 8 6.96086 7.78929 6.58579 7.41421C6.21071 7.03914 6 6.53043 6 6C6 5.46957 6.21071 4.96086 6.58579 4.58579C6.96086 4.21071 7.46957 4 8 4C8.53043 4 9.03914 4.21071 9.41421 4.58579C9.78929 4.96086 10 5.46957 10 6C10 6.53043 9.78929 7.03914 9.41421 7.41421C9.03914 7.78929 8.53043 8 8 8V8ZM8 16C7.46957 16 6.96086 15.7893 6.58579 15.4142C6.21071 15.0391 6 14.5304 6 14C6 13.4696 6.21071 12.9609 6.58579 12.5858C6.96086 12.2107 7.46957 12 8 12C8.53043 12 9.03914 12.2107 9.41421 12.5858C9.78929 12.9609 10 13.4696 10 14C10 14.5304 9.78929 15.0391 9.41421 15.4142C9.03914 15.7893 8.53043 16 8 16V16ZM6 22C6 22.5304 6.21071 23.0391 6.58579 23.4142C6.96086 23.7893 7.46957 24 8 24C8.53043 24 9.03914 23.7893 9.41421 23.4142C9.78929 23.0391 10 22.5304 10 22C10 21.4696 9.78929 20.9609 9.41421 20.5858C9.03914 20.2107 8.53043 20 8 20C7.46957 20 6.96086 20.2107 6.58579 20.5858C6.21071 20.9609 6 21.4696 6 22Z" fill="current"/>
</svg>
