<svg width="36" height="36" viewBox="0 0 36 36" fill="none" xmlns="http://www.w3.org/2000/svg">
<path d="M30.0001 17H28.0001C28.0001 18.8 27.5001 20.5 26.6001 22L28.1001 23.5C29.3001 21.5 29.9001 19.3 30.0001 17Z" fill="#EFF0F7"/>
<path d="M17.9999 4.00001C20.7999 4.00001 22.9999 6.20001 22.9999 9.00001V17C22.9999 17.4 22.8999 17.8 22.7999 18.2L24.3999 19.8C24.7999 18.9 24.9999 18 24.9999 17V9.00001C24.9999 5.10001 21.7999 2.00001 17.8999 2.10001C14.9999 2.10001 12.2999 4.00001 11.3999 6.80001L12.9999 8.30001C13.4999 5.90001 15.5999 4.20001 17.9999 4.00001Z" fill="#EFF0F7"/>
<path d="M25.2001 26.6L32.1001 33.5L33.5001 32.1L4.0001 2.59998L2.6001 3.99998L11.0001 12.4V17C11.0001 20.9 14.1001 24 18.0001 24C19.3001 24 20.5001 23.7 21.6001 23L23.8001 25.2C22.1001 26.4 20.1001 27 18.0001 27C12.6001 27.2 8.2001 22.9 8.0001 17.6V17H6.0001C6.1001 23.2 10.8001 28.4 17.0001 29V32H14.0001C13.4001 32 13.0001 32.4 13.0001 33C13.0001 33.6 13.4001 34 14.0001 34H22.0001C22.6001 34 23.0001 33.6 23.0001 33C23.0001 32.4 22.6001 32 22.0001 32H19.0001V29C21.2001 28.8 23.4001 28 25.2001 26.6ZM13.8001 19.7C13.3001 18.9 13.0001 18 13.0001 17V14.4L20.1001 21.5C17.9001 22.5 15.2001 21.8 13.8001 19.7Z" fill="#EFF0F7"/>
</svg>
