<svg width="9" height="10" viewBox="0 0 9 10" fill="none" xmlns="http://www.w3.org/2000/svg">
<g clip-path="url(#clip0)">
<path d="M4.28571 5C5.63839 5 6.73469 3.88086 6.73469 2.5C6.73469 1.11914 5.63839 0 4.28571 0C2.93304 0 1.83673 1.11914 1.83673 2.5C1.83673 3.88086 2.93304 5 4.28571 5ZM6 5.625H5.68048C5.25574 5.82422 4.78316 5.9375 4.28571 5.9375C3.78827 5.9375 3.3176 5.82422 2.89094 5.625H2.57143C1.15179 5.625 0 6.80078 0 8.25V9.0625C0 9.58008 0.411352 10 0.918367 10H7.65306C8.16008 10 8.57143 9.58008 8.57143 9.0625V8.25C8.57143 6.80078 7.41964 5.625 6 5.625Z" fill="#EFF0F7" fill-opacity="0.8"/>
</g>
<defs>
<clipPath id="clip0">
<rect width="8.57143" height="10" fill="white"/>
</clipPath>
</defs>
</svg>
