<svg width="22" height="24" viewBox="0 0 22 24" fill="none" xmlns="http://www.w3.org/2000/svg">
<path d="M3.32032 2.46126L19.7123 11.5405C19.8017 11.59 19.8769 11.6666 19.9296 11.7617C19.9822 11.8569 20.0101 11.9666 20.0101 12.0787C20.0101 12.1907 19.9822 12.3005 19.9296 12.3956C19.8769 12.4907 19.8017 12.5673 19.7123 12.6169L3.31925 21.6961C3.22741 21.7468 3.12454 21.7667 3.02289 21.7536C2.92124 21.7405 2.82509 21.6947 2.7459 21.6219C2.66671 21.5491 2.60781 21.4522 2.57622 21.3428C2.54462 21.2334 2.54167 21.1161 2.56771 21.0049L4.66968 12.0841L2.56664 3.15366C2.54017 3.0422 2.54285 2.92452 2.57436 2.81473C2.60587 2.70493 2.66486 2.60768 2.74429 2.53461C2.82371 2.46154 2.92018 2.41576 3.02216 2.40275C3.12413 2.38974 3.22728 2.41006 3.31925 2.46126H3.32032ZM3.89999 4.12086L5.61871 11.4193L5.6849 11.4049L5.75322 11.4001H13.2259C13.3593 11.3998 13.488 11.4557 13.5865 11.5567C13.6851 11.6577 13.7465 11.7965 13.7585 11.9458C13.7706 12.0952 13.7324 12.2441 13.6517 12.3635C13.5709 12.4828 13.4533 12.5637 13.322 12.5905L13.2259 12.6001H5.75322C5.72029 12.6002 5.68742 12.597 5.65501 12.5905L3.90105 20.0377L18.2679 12.0793L3.89999 4.12086Z" fill="#E9760D"/>
</svg>
