<svg width="24" height="25" viewBox="0 0 24 25" fill="none" xmlns="http://www.w3.org/2000/svg">
<g clip-path="url(#clip0)">
<path d="M11.9999 18.8241C12.4896 18.8241 12.8866 18.4356 12.8866 17.9565C12.8866 17.4773 12.4896 17.0889 11.9999 17.0889C11.5103 17.0889 11.1133 17.4773 11.1133 17.9565C11.1133 18.4356 11.5103 18.8241 11.9999 18.8241Z" fill="#EFF0F7"/>
<path d="M12.0002 15.7059C11.8234 15.7059 11.6538 15.6371 11.5288 15.5148C11.4037 15.3925 11.3335 15.2265 11.3335 15.0535V7.22557C11.3335 7.05256 11.4037 6.88664 11.5288 6.76431C11.6538 6.64197 11.8234 6.57324 12.0002 6.57324C12.177 6.57324 12.3465 6.64197 12.4716 6.76431C12.5966 6.88664 12.6668 7.05256 12.6668 7.22557V15.0535C12.6668 15.2265 12.5966 15.3925 12.4716 15.5148C12.3465 15.6371 12.177 15.7059 12.0002 15.7059Z" fill="#EFF0F7"/>
<path d="M10.0415 2.05322C10.2268 1.72324 10.4993 1.44804 10.8305 1.25641C11.1617 1.06477 11.5395 0.963734 11.9242 0.963867C12.309 0.964001 12.6867 1.0653 13.0178 1.25716C13.3488 1.44903 13.6211 1.72442 13.8062 2.05452L23.0662 18.7281C23.2438 19.048 23.3333 19.4076 23.3261 19.7716C23.3189 20.1355 23.2151 20.4915 23.0249 20.8044C22.8347 21.1173 22.5647 21.3764 22.2413 21.5565C21.9179 21.7365 21.5522 21.8311 21.1802 21.8312H2.6815C2.30526 21.8394 1.93341 21.7507 1.60324 21.574C1.27307 21.3973 0.99619 21.1387 0.800354 20.8243C0.604518 20.5098 0.496611 20.1505 0.487452 19.7823C0.478294 19.4142 0.568205 19.0502 0.748172 18.7268L10.0415 2.05322ZM1.92017 19.351C1.85148 19.4746 1.81749 19.6138 1.82165 19.7544C1.82581 19.895 1.86798 20.032 1.94387 20.1514C2.01975 20.2709 2.12663 20.3685 2.25363 20.4344C2.38063 20.5003 2.5232 20.5321 2.66684 20.5265H21.1802C21.3212 20.5265 21.4597 20.4905 21.5822 20.4223C21.7047 20.354 21.807 20.2557 21.879 20.1371C21.951 20.0185 21.9902 19.8837 21.9929 19.7457C21.9956 19.6078 21.9615 19.4716 21.8942 19.3504L12.6362 2.68011C12.566 2.55537 12.4629 2.45133 12.3376 2.37886C12.2124 2.30638 12.0696 2.26811 11.924 2.26804C11.7785 2.26798 11.6356 2.30611 11.5103 2.37848C11.385 2.45084 11.2818 2.55478 11.2115 2.67945L1.91951 19.351H1.92017Z" fill="#EFF0F7"/>
</g>
<defs>
<clipPath id="clip0">
<rect width="24" height="23.4839" fill="white" transform="translate(0 0.956543)"/>
</clipPath>
</defs>
</svg>
