<svg width="30" height="30" viewBox="0 0 30 30" fill="none" xmlns="http://www.w3.org/2000/svg">
<path d="M15 0C6.71572 0 0 6.71572 0 15C0 23.2843 6.71572 30 15 30C23.2843 30 30 23.2843 30 15C30 6.71572 23.2843 0 15 0ZM15 28.125C7.75125 28.125 1.875 22.2488 1.875 15C1.875 7.75125 7.75125 1.875 15 1.875C22.2488 1.875 28.125 7.75125 28.125 15C28.125 22.2488 22.2488 28.125 15 28.125Z" fill="#AEAEAE"/>
<path d="M10.3125 12.1875C11.348 12.1875 12.1875 11.348 12.1875 10.3125C12.1875 9.27697 11.348 8.4375 10.3125 8.4375C9.27697 8.4375 8.4375 9.27697 8.4375 10.3125C8.4375 11.348 9.27697 12.1875 10.3125 12.1875Z" fill="#AEAEAE"/>
<path d="M19.6875 12.1875C20.723 12.1875 21.5625 11.348 21.5625 10.3125C21.5625 9.27697 20.723 8.4375 19.6875 8.4375C18.652 8.4375 17.8125 9.27697 17.8125 10.3125C17.8125 11.348 18.652 12.1875 19.6875 12.1875Z" fill="#AEAEAE"/>
<path d="M21.5625 17.8125H8.4375V19.6875H21.5625V17.8125Z" fill="#AEAEAE"/>
</svg>
