<svg width="30" height="30" viewBox="0 0 30 30" fill="none" xmlns="http://www.w3.org/2000/svg">
<path d="M25.6066 4.39342C22.7735 1.56029 19.0066 0 15 0C10.9934 0 7.22648 1.56029 4.39342 4.39342C1.56023 7.22648 0 10.9934 0 15C0 19.0066 1.56023 22.7735 4.39342 25.6066C7.22648 28.4397 10.9934 30 15 30C19.0066 30 22.7735 28.4397 25.6066 25.6066C28.4398 22.7735 30 19.0066 30 15C30 10.9934 28.4398 7.22648 25.6066 4.39342ZM15 28.2143C7.71363 28.2143 1.7857 22.2864 1.7857 15C1.7857 7.71363 7.71363 1.7857 15 1.7857C22.2864 1.7857 28.2143 7.71363 28.2143 15C28.2143 22.2864 22.2864 28.2143 15 28.2143Z" fill="#AEAEAE"/>
<path d="M11.7552 11.0388C10.2931 9.57662 7.91404 9.57674 6.45195 11.0388C6.10326 11.3875 6.10326 11.9528 6.45195 12.3015C6.8007 12.6502 7.36607 12.6502 7.7147 12.3015C8.48064 11.5356 9.72682 11.5357 10.4926 12.3015C10.667 12.4759 10.8955 12.5631 11.1239 12.5631C11.3524 12.5631 11.581 12.4759 11.7552 12.3015C12.1039 11.9528 12.1039 11.3875 11.7552 11.0388Z" fill="#AEAEAE"/>
<path d="M23.5472 11.0388C22.0851 9.57674 19.706 9.57662 18.2439 11.0388C17.8952 11.3875 17.8952 11.9528 18.2439 12.3015C18.5927 12.6502 19.1581 12.6502 19.5067 12.3015C20.2725 11.5356 21.5187 11.5356 22.2846 12.3015C22.459 12.4759 22.6875 12.5631 22.9159 12.5631C23.1444 12.5631 23.373 12.4759 23.5472 12.3015C23.8959 11.9528 23.8959 11.3875 23.5472 11.0388Z" fill="#AEAEAE"/>
<path d="M22.9166 15.6548H7.08328C6.59016 15.6548 6.19043 16.0546 6.19043 16.5476C6.19043 21.4052 10.1424 25.3571 14.9999 25.3571C19.8575 25.3571 23.8095 21.4052 23.8095 16.5476C23.8095 16.0545 23.4097 15.6548 22.9166 15.6548ZM14.9999 23.5714C11.4294 23.5714 8.47248 20.8935 8.03262 17.4405H21.9673C21.5274 20.8935 18.5705 23.5714 14.9999 23.5714Z" fill="#AEAEAE"/>
</svg>
