<svg width="30" height="30" viewBox="0 0 30 30" fill="none" xmlns="http://www.w3.org/2000/svg">
<path d="M25.6066 4.39336C22.7735 1.56029 19.0066 0 15 0C10.9934 0 7.22654 1.56029 4.39336 4.39336C1.56029 7.22654 0 10.9934 0 15C0 19.0066 1.56029 22.7735 4.39336 25.6066C7.22654 28.4397 10.9934 30 15 30C19.0066 30 22.7735 28.4397 25.6066 25.6066C28.4397 22.7735 30 19.0066 30 15C30 10.9934 28.4397 7.22654 25.6066 4.39336ZM24.3636 24.3636C21.8625 26.8648 18.5371 28.2422 15 28.2422C11.4629 28.2422 8.1375 26.8648 5.63637 24.3636C3.13523 21.8625 1.75781 18.5371 1.75781 15C1.75781 11.4629 3.13523 8.1375 5.63637 5.63637C8.1375 3.13523 11.4629 1.75781 15 1.75781C18.5371 1.75781 21.8625 3.13523 24.3636 5.63637C26.8648 8.1375 28.2422 11.4629 28.2422 15C28.2422 18.5371 26.8648 21.8625 24.3636 24.3636Z" fill="current"/>
<path d="M14.9993 15.9112C11.1394 15.9112 7.99902 19.0516 7.99902 22.9115H9.75683C9.75683 20.0208 12.1086 17.6691 14.9993 17.6691C17.8899 17.6691 20.2417 20.0208 20.2417 22.9115H21.9995C21.9995 19.0515 18.8592 15.9112 14.9993 15.9112Z" fill="current"/>
<path d="M12.5847 9.29262H10.8269C10.8269 10.1135 10.1591 10.7813 9.33824 10.7813C8.5174 10.7813 7.84961 10.1135 7.84961 9.29262H6.0918C6.0918 11.0827 7.54814 12.5391 9.33824 12.5391C11.1283 12.5391 12.5847 11.0827 12.5847 9.29262Z" fill="current"/>
<path d="M20.6625 10.7813C19.8416 10.7813 19.1738 10.1135 19.1738 9.29262H17.416C17.416 11.0827 18.8724 12.5391 20.6625 12.5391C22.4526 12.5391 23.9089 11.0827 23.9089 9.29262H22.1511C22.1511 10.1135 21.4833 10.7813 20.6625 10.7813Z" fill="current"/>
</svg>
