<svg width="30" height="30" viewBox="0 0 30 30" fill="none" xmlns="http://www.w3.org/2000/svg">
<path d="M22.8323 11.1415C22.6327 10.6991 22.1121 10.5023 21.6697 10.702L15 13.7121L8.33027 10.702C7.88789 10.5024 7.36729 10.6992 7.16766 11.1416C6.96797 11.584 7.16473 12.1046 7.60723 12.3043L9.5823 13.1956C9.12779 13.6695 8.84766 14.3118 8.84766 15.0188C8.84766 16.4726 10.0305 17.6555 11.4844 17.6555C12.8639 17.6555 13.9986 16.5904 14.1111 15.2395L14.6385 15.4775C14.8682 15.5812 15.1317 15.5813 15.3615 15.4775L15.8889 15.2395C16.0015 16.5904 17.1362 17.6555 18.5156 17.6555C19.9695 17.6555 21.1523 16.4726 21.1523 15.0188C21.1523 14.3119 20.8722 13.6695 20.4177 13.1956L22.3928 12.3043C22.8353 12.1045 23.032 11.584 22.8323 11.1415ZM11.4844 15.8977C10.9997 15.8977 10.6055 15.5034 10.6055 15.0188C10.6055 14.5341 10.9997 14.1398 11.4844 14.1398C11.9718 14.1398 12.3633 14.5352 12.3633 15.0188C12.3633 15.5034 11.969 15.8977 11.4844 15.8977ZM18.5156 15.8977C18.031 15.8977 17.6367 15.5034 17.6367 15.0188C17.6367 14.5337 18.0293 14.1398 18.5156 14.1398C19.0003 14.1398 19.3945 14.5341 19.3945 15.0188C19.3945 15.5034 19.0003 15.8977 18.5156 15.8977ZM27.5628 23.1143C29.143 20.6829 30 17.8607 30 15.0188C30 6.76061 23.2605 0 15 0C6.74203 0 0 6.75814 0 15.0188C0 17.8607 0.856992 20.6829 2.43721 23.1144C1.93078 23.2838 1.46355 23.566 1.06846 23.9493C0.379453 24.6178 0 25.5039 0 26.4445C0 28.6964 1.85238 29.9958 4.16936 29.9958C5.70932 29.9958 7.26984 29.4373 8.45068 28.4636C8.45356 28.4612 8.45654 28.4587 8.45941 28.4563C10.5244 29.4676 12.7727 30 15 30C17.2263 30 19.4736 29.4681 21.5378 28.4576C21.5413 28.4604 21.5449 28.4636 21.5484 28.4664C22.729 29.441 24.2895 30 25.8294 30C28.149 30 30 28.6958 30 26.4445C30 24.8776 28.9452 23.577 27.5628 23.1143ZM7.75301 26.7268C7.711 26.7623 7.67197 26.8021 7.63664 26.846C6.63979 27.8276 5.22445 28.2379 4.16936 28.2379C3.44637 28.2379 2.81133 28.0625 2.38131 27.7439C1.96172 27.4332 1.75781 27.0081 1.75781 26.4445C1.75781 25.4917 2.58961 24.6867 3.57422 24.6867C4.25613 24.6867 4.86293 25.0747 5.15795 25.6994C5.34322 26.0916 5.78725 26.2902 6.20291 26.1666C7.16941 25.8795 8.05969 25.3515 8.7777 24.6486C8.6284 25.5113 8.25041 26.1959 7.75301 26.7268ZM20.2734 19.4133C19.788 19.4133 19.3945 19.8068 19.3945 20.2922V23.8078C19.3945 25.1938 19.7917 26.2695 20.3173 27.0868C18.6186 27.844 16.7999 28.2422 15 28.2422C13.1996 28.2422 11.3805 27.8439 9.68145 27.0863C10.2076 26.2692 10.6055 25.1938 10.6055 23.8078V20.2921C10.6055 19.8067 10.212 19.4132 9.72656 19.4132C9.24117 19.4132 8.84766 19.8067 8.84766 20.2921C8.84766 22.0205 7.85156 23.5412 6.31195 24.2519C5.86137 23.6899 5.24795 23.2782 4.56246 23.0738C2.7518 20.7348 1.75781 17.8857 1.75781 15.0188C1.75781 7.70666 7.69822 1.75781 15 1.75781C22.3018 1.75781 28.2422 7.70666 28.2422 15.0188C28.2422 17.8857 27.2482 20.7348 25.4375 23.0738C24.7521 23.2782 24.1387 23.6899 23.688 24.2519C22.1484 23.5413 21.1523 22.0205 21.1523 20.2922C21.1523 19.8068 20.7588 19.4133 20.2734 19.4133ZM27.6179 27.7474C27.1877 28.0665 26.5525 28.2422 25.8294 28.2422C24.7781 28.2422 23.3689 27.8342 22.3729 26.8586C22.2803 26.739 21.4661 26.0617 21.2221 24.6484C21.9401 25.3513 22.8305 25.8794 23.7971 26.1665C24.213 26.2901 24.6568 26.0916 24.8421 25.6993C25.1371 25.0747 25.7439 24.6867 26.4258 24.6867C27.4104 24.6867 28.2422 25.4916 28.2422 26.4445C28.2422 27.0097 28.038 27.4359 27.6179 27.7474ZM16.7578 21.1711H13.2422C12.7568 21.1711 12.3633 21.5646 12.3633 22.05C12.3633 22.5354 12.7568 22.9289 13.2422 22.9289H16.7578C17.2432 22.9289 17.6367 22.5354 17.6367 22.05C17.6367 21.5646 17.2432 21.1711 16.7578 21.1711Z" fill="current"/>
</svg>
