<svg width="31" height="31" viewBox="0 0 31 31" fill="none" xmlns="http://www.w3.org/2000/svg">
<path d="M12.2708 14.2084C12.2708 13.495 12.8491 12.9167 13.5625 12.9167H21.3125C22.0258 12.9167 22.6041 13.495 22.6041 14.2084C22.6041 14.9217 22.0258 15.5 21.3125 15.5H13.5625C12.8491 15.5 12.2708 14.9217 12.2708 14.2084Z" fill="current"/>
<path d="M13.5625 18.0834C12.8491 18.0834 12.2708 18.6617 12.2708 19.375C12.2708 20.0884 12.8491 20.6667 13.5625 20.6667H21.3125C22.0258 20.6667 22.6041 20.0884 22.6041 19.375C22.6041 18.6617 22.0258 18.0834 21.3125 18.0834H13.5625Z" fill="current"/>
<path fill-rule="evenodd" clip-rule="evenodd" d="M5.16663 1.29169C4.09658 1.29169 3.22913 2.15914 3.22913 3.22919V24.5417C3.22913 25.2551 3.80742 25.8334 4.52079 25.8334H7.10413V28.4167C7.10413 29.1301 7.68242 29.7084 8.39579 29.7084H26.4791C27.1925 29.7084 27.7708 29.1301 27.7708 28.4167V6.45835C27.7708 5.74499 27.1925 5.16669 26.4791 5.16669H23.8958V2.58335C23.8958 1.86999 23.3175 1.29169 22.6041 1.29169H5.16663ZM21.3125 5.16669V3.87502H5.81246V23.25H7.10413V6.45835C7.10413 5.74499 7.68242 5.16669 8.39579 5.16669H21.3125ZM9.68746 27.125H25.1875V7.75002H9.68746V27.125Z" fill="current"/>
</svg>
