<svg width="31" height="31" viewBox="0 0 31 31" fill="none" xmlns="http://www.w3.org/2000/svg">
<path fill-rule="evenodd" clip-rule="evenodd" d="M15.5 3.87502C13.3599 3.87502 11.625 5.60992 11.625 7.75002C11.625 9.89012 13.3599 11.625 15.5 11.625C17.6401 11.625 19.375 9.89012 19.375 7.75002C19.375 5.60992 17.6401 3.87502 15.5 3.87502ZM9.04171 7.75002C9.04171 4.18318 11.9332 1.29169 15.5 1.29169C19.0669 1.29169 21.9584 4.18318 21.9584 7.75002C21.9584 11.3169 19.0669 14.2084 15.5 14.2084C11.9332 14.2084 9.04171 11.3169 9.04171 7.75002ZM2.58337 28.4167C2.58337 21.283 8.36638 15.5 15.5 15.5C22.6337 15.5 28.4167 21.283 28.4167 28.4167C28.4167 29.1301 27.8384 29.7084 27.125 29.7084C26.4117 29.7084 25.8334 29.1301 25.8334 28.4167C25.8334 23.3226 22.1472 19.0894 17.2968 18.239L19.3179 24.8077C19.4436 25.2163 19.3591 25.6606 19.092 25.9944L16.5087 29.2236C16.2635 29.53 15.8924 29.7084 15.5 29.7084C15.1077 29.7084 14.7365 29.53 14.4914 29.2236L11.9081 25.9944C11.641 25.6606 11.5564 25.2163 11.6822 24.8077L13.7033 18.239C8.85284 19.0894 5.16671 23.3226 5.16671 28.4167C5.16671 29.1301 4.58841 29.7084 3.87504 29.7084C3.16167 29.7084 2.58337 29.1301 2.58337 28.4167ZM15.5 21.1838L14.3522 24.9142L15.5 26.349L16.6479 24.9142L15.5 21.1838Z" fill="current"/>
</svg>
