<svg width="31" height="31" viewBox="0 0 31 31" fill="none" xmlns="http://www.w3.org/2000/svg">
<path fill-rule="evenodd" clip-rule="evenodd" d="M2.58331 3.87498C2.58331 3.16161 3.16161 2.58331 3.87498 2.58331H12.9166C13.63 2.58331 14.2083 3.16161 14.2083 3.87498V10.9791C14.2083 11.6925 13.63 12.2708 12.9166 12.2708H3.87498C3.16161 12.2708 2.58331 11.6925 2.58331 10.9791V3.87498ZM5.16665 5.16665V9.68748H11.625V5.16665H5.16665ZM16.7916 3.87498C16.7916 3.16161 17.3699 2.58331 18.0833 2.58331H27.125C27.8383 2.58331 28.4166 3.16161 28.4166 3.87498V14.8541C28.4166 15.5675 27.8383 16.1458 27.125 16.1458H18.0833C17.3699 16.1458 16.7916 15.5675 16.7916 14.8541V3.87498ZM19.375 5.16665V13.5625H25.8333V5.16665H19.375ZM2.58331 16.1458C2.58331 15.4324 3.16161 14.8541 3.87498 14.8541H12.9166C13.63 14.8541 14.2083 15.4324 14.2083 16.1458V27.125C14.2083 27.8383 13.63 28.4166 12.9166 28.4166H3.87498C3.16161 28.4166 2.58331 27.8383 2.58331 27.125V16.1458ZM5.16665 17.4375V25.8333H11.625V17.4375H5.16665ZM16.7916 20.0208C16.7916 19.3074 17.3699 18.7291 18.0833 18.7291H27.125C27.8383 18.7291 28.4166 19.3074 28.4166 20.0208V27.125C28.4166 27.8383 27.8383 28.4166 27.125 28.4166H18.0833C17.3699 28.4166 16.7916 27.8383 16.7916 27.125V20.0208ZM19.375 21.3125V25.8333H25.8333V21.3125H19.375Z" fill="current"/>
</svg>
