<svg width="32" height="32" viewBox="0 0 32 32" fill="none" xmlns="http://www.w3.org/2000/svg">
<g clip-path="url(#clip0)">
<path d="M12.3333 10.6667H2.33325C1.04663 10.6667 0 9.62012 0 8.33325V2.33325C0 1.04663 1.04663 0 2.33325 0H12.3333C13.6201 0 14.6667 1.04663 14.6667 2.33325V8.33325C14.6667 9.62012 13.6201 10.6667 12.3333 10.6667ZM2.33325 2C2.14941 2 2 2.14941 2 2.33325V8.33325C2 8.51733 2.14941 8.66675 2.33325 8.66675H12.3333C12.5173 8.66675 12.6667 8.51733 12.6667 8.33325V2.33325C12.6667 2.14941 12.5173 2 12.3333 2H2.33325Z" fill="current"/>
<path d="M12.3333 32.0002H2.33325C1.04663 32.0002 0 30.9536 0 29.667V15.667C0 14.3801 1.04663 13.3335 2.33325 13.3335H12.3333C13.6201 13.3335 14.6667 14.3801 14.6667 15.667V29.667C14.6667 30.9536 13.6201 32.0002 12.3333 32.0002ZM2.33325 15.3335C2.14941 15.3335 2 15.4829 2 15.667V29.667C2 29.8508 2.14941 30.0002 2.33325 30.0002H12.3333C12.5173 30.0002 12.6667 29.8508 12.6667 29.667V15.667C12.6667 15.4829 12.5173 15.3335 12.3333 15.3335H2.33325Z" fill="current"/>
<path d="M29.6667 32.0002H19.6667C18.3799 32.0002 17.3333 30.9536 17.3333 29.667V23.667C17.3333 22.3801 18.3799 21.3335 19.6667 21.3335H29.6667C30.9534 21.3335 32 22.3801 32 23.667V29.667C32 30.9536 30.9534 32.0002 29.6667 32.0002ZM19.6667 23.3335C19.4827 23.3335 19.3333 23.4829 19.3333 23.667V29.667C19.3333 29.8508 19.4827 30.0002 19.6667 30.0002H29.6667C29.8506 30.0002 30 29.8508 30 29.667V23.667C30 23.4829 29.8506 23.3335 29.6667 23.3335H19.6667Z" fill="current"/>
<path d="M29.6667 18.6667H19.6667C18.3799 18.6667 17.3333 17.6201 17.3333 16.3333V2.33325C17.3333 1.04663 18.3799 0 19.6667 0H29.6667C30.9534 0 32 1.04663 32 2.33325V16.3333C32 17.6201 30.9534 18.6667 29.6667 18.6667ZM19.6667 2C19.4827 2 19.3333 2.14941 19.3333 2.33325V16.3333C19.3333 16.5173 19.4827 16.6667 19.6667 16.6667H29.6667C29.8506 16.6667 30 16.5173 30 16.3333V2.33325C30 2.14941 29.8506 2 29.6667 2H19.6667Z" fill="current"/>
</g>
<defs>
<clipPath id="clip0">
<rect width="32" height="32" fill="white"/>
</clipPath>
</defs>
</svg>
