<svg width="31" height="31" viewBox="0 0 31 31" fill="none" xmlns="http://www.w3.org/2000/svg">
<path d="M2.58331 3.87498C2.58331 3.16161 3.16161 2.58331 3.87498 2.58331H15.4946C16.208 2.58331 16.7863 3.16161 16.7863 3.87498C16.7863 4.58835 16.208 5.16665 15.4946 5.16665H5.16665V25.8333H15.5C16.2133 25.8333 16.7916 26.4116 16.7916 27.125C16.7916 27.8383 16.2133 28.4166 15.5 28.4166H3.87498C3.16161 28.4166 2.58331 27.8383 2.58331 27.125V3.87498Z" fill="current"/>
<path d="M20.3991 8.77413C20.9036 8.26971 21.7214 8.26971 22.2258 8.77413L27.9678 14.5161C28.2426 14.7529 28.4166 15.1036 28.4166 15.4949L28.4166 15.4973C28.4173 15.8288 28.2912 16.1604 28.0383 16.4133L22.2258 22.2258C21.7214 22.7303 20.9036 22.7303 20.3991 22.2258C19.8947 21.7214 19.8947 20.9036 20.3991 20.3991L24.0117 16.7866H10.3333C9.61995 16.7866 9.04165 16.2083 9.04165 15.4949C9.04165 14.7816 9.61995 14.2033 10.3333 14.2033H24.0016L20.3991 10.6008C19.8947 10.0964 19.8947 9.27856 20.3991 8.77413Z" fill="current"/>
</svg>
