<svg width="28" height="28" viewBox="0 0 28 28" fill="current" xmlns="http://www.w3.org/2000/svg">
<path d="M14 2.8C16.9705 2.8 19.8192 3.98 21.9196 6.08041C24.0201 8.18081 25.2 11.0296 25.2 14C25.2 16.9704 24.0201 19.8192 21.9196 21.9196C19.8192 24.02 16.9705 25.2 14 25.2C11.0296 25.2 8.18086 24.02 6.08045 21.9196C3.98005 19.8192 2.80005 16.9704 2.80005 14C2.80005 11.0296 3.98005 8.18081 6.08045 6.08041C8.18086 3.98 11.0296 2.8 14 2.8ZM14 4.2C12.7131 4.2 11.4387 4.45349 10.2498 4.94598C9.06076 5.43848 7.98042 6.16034 7.0704 7.07036C6.16039 7.98037 5.43852 9.06071 4.94603 10.2497C4.45353 11.4387 4.20005 12.713 4.20005 14C4.20005 15.287 4.45353 16.5613 4.94603 17.7503C5.43852 18.9393 6.16039 20.0196 7.0704 20.9296C7.98042 21.8397 9.06076 22.5615 10.2498 23.054C11.4387 23.5465 12.7131 23.8 14 23.8C16.5992 23.8 19.0918 22.7675 20.9297 20.9296C22.7675 19.0918 23.8 16.5991 23.8 14C23.8 11.4009 22.7675 8.90821 20.9297 7.07036C19.0918 5.2325 16.5992 4.2 14 4.2ZM14 17.5C14.2785 17.5 14.5456 17.6106 14.7425 17.8075C14.9394 18.0045 15.05 18.2715 15.05 18.55C15.05 18.8285 14.9394 19.0956 14.7425 19.2925C14.5456 19.4894 14.2785 19.6 14 19.6C13.7216 19.6 13.4545 19.4894 13.2576 19.2925C13.0607 19.0956 12.95 18.8285 12.95 18.55C12.95 18.2715 13.0607 18.0045 13.2576 17.8075C13.4545 17.6106 13.7216 17.5 14 17.5ZM14 8.4C14.1639 8.39995 14.3225 8.45736 14.4484 8.56225C14.5743 8.66713 14.6594 8.81284 14.6888 8.974L14.7 9.1V15.4C14.7004 15.5749 14.6352 15.7436 14.5173 15.8729C14.3995 16.0022 14.2375 16.0826 14.0633 16.0984C13.8891 16.1142 13.7153 16.0642 13.5761 15.9583C13.4369 15.8523 13.3424 15.6981 13.3112 15.526L13.3 15.4V9.1C13.3 8.91435 13.3738 8.7363 13.5051 8.60503C13.6363 8.47375 13.8144 8.4 14 8.4Z" fill="current"/>
</svg>
