<svg width="31" height="31" viewBox="0 0 31 31" fill="none" xmlns="http://www.w3.org/2000/svg">
<path fill-rule="evenodd" clip-rule="evenodd" d="M1.29169 15.5C1.29169 7.65297 7.65297 1.29169 15.5 1.29169C23.3471 1.29169 29.7084 7.65297 29.7084 15.5C29.7084 23.3471 23.3471 29.7084 15.5 29.7084C7.65297 29.7084 1.29169 23.3471 1.29169 15.5ZM15.5 3.87502C9.07971 3.87502 3.87502 9.07971 3.87502 15.5C3.87502 21.9203 9.07971 27.125 15.5 27.125C21.9203 27.125 27.125 21.9203 27.125 15.5C27.125 9.07971 21.9203 3.87502 15.5 3.87502Z" fill="current"/>
<path d="M15.5 9.04169C16.2133 9.04169 16.7916 9.61999 16.7916 10.3334V10.9792C16.7916 11.6926 16.2133 12.2709 15.5 12.2709C14.7866 12.2709 14.2083 11.6926 14.2083 10.9792V10.3334C14.2083 9.61999 14.7866 9.04169 15.5 9.04169Z" fill="current"/>
<path d="M15.5 13.5625C16.2133 13.5625 16.7916 14.1408 16.7916 14.8542V20.6667C16.7916 21.3801 16.2133 21.9584 15.5 21.9584C14.7866 21.9584 14.2083 21.3801 14.2083 20.6667V14.8542C14.2083 14.1408 14.7866 13.5625 15.5 13.5625Z" fill="current"/>
</svg>
